<svg id="Layer_1" data-name="Layer 1" xmlns="http://www.w3.org/2000/svg" viewBox="0 0 19.32 19.32"><defs><style>.cls-1{fill:#128997;}</style></defs><path class="cls-1" d="M19.32,19.32H0V17.6c0-1.78,0-3.8,3.07-4.51l.16,0c1.05-.24,2.81-.65,3-1.12,0-.07,0-.26-.16-.58-1.94-3.57-2.28-6.74-1-8.93A5.11,5.11,0,0,1,9.66,0a5.11,5.11,0,0,1,4.53,2.39c1.3,2.16,1,5.34-.95,9a.89.89,0,0,0-.16.6c.21.46,1.94.86,3.08,1.13l-.05.42.14-.4c3.09.71,3.08,2.74,3.07,4.54ZM2,17.32H17.32c0-1.62-.12-2-1.51-2.28h0L16,14.1l-.31.91c-2-.45-3.82-.88-4.45-2.24a2.58,2.58,0,0,1,.21-2.36c1.55-2.93,1.92-5.48,1-7A3.09,3.09,0,0,0,9.66,2,3.12,3.12,0,0,0,6.83,3.44c-.92,1.54-.55,4.07,1,7a2.59,2.59,0,0,1,.23,2.36c-.62,1.37-2.46,1.79-4.4,2.24l-.16,0C2.12,15.36,2,15.73,2,17.32Z"/></svg>