<svg id="Layer_1" data-name="Layer 1" xmlns="http://www.w3.org/2000/svg" viewBox="0 0 31.63 31.62"><defs><style>.cls-1{fill:#148d9a;}</style></defs><g id="Group_516" data-name="Group 516"><path id="iconmonstr-instagram-11" class="cls-1" d="M15.81,2.85c4.22,0,4.72,0,6.39.09,4.28.2,6.28,2.23,6.48,6.48.07,1.67.09,2.17.09,6.39s0,4.72-.09,6.39c-.2,4.25-2.19,6.28-6.48,6.48-1.67.07-2.17.09-6.39.09s-4.72,0-6.39-.09c-4.29-.2-6.28-2.24-6.48-6.48-.08-1.67-.09-2.17-.09-6.39s0-4.72.09-6.39c.2-4.25,2.19-6.29,6.48-6.48,1.67-.08,2.17-.09,6.39-.09Zm0-2.85C11.52,0,11,0,9.29.09,3.55.36.36,3.54.1,9.29,0,11,0,11.52,0,15.81s0,4.83.09,6.52c.27,5.74,3.45,8.93,9.21,9.2,1.68.07,2.22.09,6.51.09s4.84,0,6.52-.09c5.74-.27,8.94-3.45,9.19-9.2.08-1.69.1-2.23.1-6.52s0-4.83-.09-6.52C31.26,3.56,28.08.36,22.33.1,20.64,0,20.1,0,15.81,0Zm0,7.69a8.12,8.12,0,1,0,8.12,8.12,8.13,8.13,0,0,0-8.12-8.12Zm0,13.39a5.27,5.27,0,1,1,5.27-5.27,5.27,5.27,0,0,1-5.27,5.27Zm8.44-15.6a1.9,1.9,0,1,0,1.9,1.9h0a1.91,1.91,0,0,0-1.9-1.91h0Z"/></g></svg>