<svg id="Layer_1" data-name="Layer 1" xmlns="http://www.w3.org/2000/svg" viewBox="0 0 17.07 17.08"><defs><style>.cls-1{fill:#128796;}</style></defs><g id="Group_415" data-name="Group 415"><path id="iconmonstr-instagram-11" class="cls-1" d="M8.54,1.54c2.28,0,2.55,0,3.45.05,2.31.1,3.39,1.2,3.5,3.5,0,.9,0,1.17,0,3.45s0,2.55,0,3.45c-.11,2.29-1.18,3.39-3.5,3.5-.9,0-1.17,0-3.45,0s-2.55,0-3.45,0c-2.32-.11-3.4-1.21-3.5-3.5,0-.9-.05-1.17-.05-3.45s0-2.55.05-3.45c.1-2.3,1.18-3.4,3.5-3.5.9,0,1.17-.05,3.45-.05ZM8.54,0C6.22,0,5.93,0,5,.05,1.92.19.19,1.91.05,5c0,.91,0,1.2,0,3.52s0,2.61.05,3.52c.14,3.1,1.86,4.82,5,5,.91.05,1.2.06,3.52.06s2.61,0,3.52-.06c3.1-.14,4.82-1.86,5-5,0-.91.05-1.2.05-3.52S17.06,5.93,17,5c-.14-3.1-1.86-4.83-5-5C11.15,0,10.86,0,8.54,0Zm0,4.15a4.39,4.39,0,1,0,4.38,4.39A4.4,4.4,0,0,0,8.54,4.15Zm0,7.23a2.85,2.85,0,1,1,2.84-2.84h0a2.84,2.84,0,0,1-2.84,2.84ZM13.1,3a1,1,0,1,0,1,1h0A1,1,0,0,0,13.1,3Z"/></g></svg>