<?xml version="1.0" encoding="UTF-8"?><svg id="Layer_1" xmlns="http://www.w3.org/2000/svg" viewBox="0 0 34 34"><defs><style>.cls-1{fill:#f2f8f9;}.cls-2{fill:#138796;}</style></defs><g id="pexels-gradienta-7130873" transform="translate(0 34) rotate(-90)"><path class="cls-1" d="M17,34C7.63,34,0,26.37,0,17S7.63,0,17,0s17,7.63,17,17-7.63,17-17,17Zm0-30c-7.17,0-13,5.83-13,13s5.83,13,13,13,13-5.83,13-13-5.83-13-13-13Z"/></g><path class="cls-2" d="M31.38,25.91l.02-.02h0c.56-.94,.27-2.16-.66-2.74s-2.19-.3-2.77,.64c-.03,.05-.05,.1-.07,.14-.01,.02-.03,.04-.04,.06,.01-.03,.02-.06,.04-.09-3.85,5.92-11.76,7.69-17.77,3.94-6-3.76-7.87-11.65-4.24-17.7-.02,.03-.04,.05-.06,.07,.01-.02,.02-.05,.04-.07,.03-.04,.07-.08,.1-.13,.59-.94,.3-2.19-.64-2.77s-2.15-.31-2.75,.61h0v.02h-.02s-.01,.04-.02,.05C-2.07,15.38-.2,25.03,6.59,30.27c.1,.08,.22,.15,.32,.23,.34,.25,.69,.51,1.06,.74h.02c.37,.24,.75,.44,1.13,.64,.12,.06,.23,.13,.35,.19,7.69,3.81,17.18,1.27,21.87-6.11,0-.01,.02-.02,.03-.04h0Z"/></svg>