<?xml version="1.0" encoding="utf-8"?>
<!-- Generator: Adobe Illustrator 25.3.1, SVG Export Plug-In . SVG Version: 6.00 Build 0)  -->
<svg version="1.1" id="Warstwa_1" xmlns="http://www.w3.org/2000/svg" xmlns:xlink="http://www.w3.org/1999/xlink" x="0px" y="0px"
	 viewBox="0 0 997.9 211.7" style="enable-background:new 0 0 997.9 211.7;" xml:space="preserve">
<style type="text/css">
	.st0{fill:#00858B;}
</style>
<path class="st0" d="M997.9,189.6V87c0-1.5-0.6-2.9-1.6-4l-15.8-16.3c-1.1-1.1-2.6-1.8-4.2-1.8h-95.3c-1.6,0-3.1,0.6-4.2,1.8
	L861.3,83c-1,1.1-1.6,2.5-1.6,4v102.4c0,1.5,0.6,3,1.7,4.1l16.4,16.5c1.1,1.1,2.6,1.7,4.1,1.7h94.8c1.6,0,3.1-0.6,4.2-1.8l15.6-16.3
	C997.4,192.5,997.9,191.1,997.9,189.6 M971.3,178.3c0,1.5-0.6,3-1.7,4.1l-0.5,0.4c-1.1,1.1-2.5,1.7-4.1,1.7h-72.4
	c-1.6,0-3.1-0.7-4.2-1.8l-0.5-0.5c-1-1.1-1.6-2.5-1.6-4V98.2c0-1.4,0.5-2.8,1.5-3.9c1.1-1.2,2.6-1.9,4.2-1.9h73.3
	c3.2,0,5.8,2.5,5.8,5.7c0,0,0,0,0,0.1L971.3,178.3z M831.1,208.6v-21.4c0-1.7-1.4-3.1-3.1-3.1c0,0,0,0,0,0h-93.6
	c-1.7,0-3.1-1.4-3.1-3.1c0,0,0,0,0,0v-28.5c0-1.7,1.4-3.1,3.1-3.1l0,0h43.9c1.7,0,3.1-1.4,3.1-3.1c0,0,0,0,0,0v-21
	c0-1.7-1.4-3.1-3.1-3.1h-43.9c-1.7,0-3.1-1.4-3.1-3.1c0,0,0,0,0,0V94.8c0-1.7,1.4-3.1,3.1-3.1c0,0,0,0,0,0h89.6
	c1.7,0,3.1-1.4,3.1-3.1V68c0-1.7-1.4-3.1-3.1-3.1H707.3c-1.7,0-3.1,1.4-3.1,3.1c0,0,0,0,0,0v140.6c0,1.7,1.4,3.1,3.1,3.1l0,0H828
	C829.7,211.7,831.1,210.4,831.1,208.6C831.1,208.6,831.1,208.6,831.1,208.6z M669.4,208.6V68c0-1.7-1.4-3.1-3.1-3.1l0,0h-19.8
	c-1.1,0-2.1,0.6-2.7,1.6l-44.5,79.6c-0.8,1.5-2.7,2-4.2,1.2c-0.5-0.3-0.9-0.7-1.2-1.2l-44-79.6c-0.5-1-1.6-1.6-2.7-1.6h-20
	c-1.7,0-3,1.4-3,3.1v140.6c0,1.7,1.4,3.1,3.1,3.1l0,0H548c1.7,0,3.1-1.4,3.1-3.1c0,0,0,0,0,0v-72c0-1.7,1.4-3.1,3.1-3.1
	c1.1,0,2.2,0.6,2.7,1.6l36.6,66.3c0.8,1.5,2.7,2,4.2,1.2c0.5-0.3,0.9-0.7,1.2-1.2l37.7-66.6c0.8-1.5,2.7-2,4.2-1.1
	c1,0.5,1.5,1.6,1.6,2.7v72.2c0,1.7,1.4,3.1,3.1,3.1c0,0,0,0,0,0h21C668.1,211.7,669.4,210.3,669.4,208.6z M488.7,193.6
	c1-1.1,1.6-2.5,1.6-4V87c0-1.5-0.6-2.9-1.6-4l-15.8-16.3c-1.1-1.1-2.6-1.8-4.2-1.8h-95.3c-1.6,0-3.1,0.6-4.2,1.8L353.6,83
	c-1,1.1-1.6,2.5-1.6,4v102.4c0,1.5,0.6,3,1.7,4.1l16.4,16.5c1.1,1.1,2.6,1.7,4.1,1.7h94.8c1.6,0,3.1-0.7,4.2-1.8L488.7,193.6z
	 M463.7,178.3c0,1.5-0.6,3-1.7,4.1l-0.5,0.4c-1.1,1.1-2.5,1.7-4.1,1.7h-72.4c-1.6,0-3.1-0.7-4.2-1.8l-0.4-0.5c-1-1.1-1.6-2.5-1.6-4
	V98.2c0-1.4,0.5-2.8,1.5-3.9c1.1-1.2,2.6-1.9,4.2-1.9h73.3c3.2,0,5.8,2.5,5.8,5.7c0,0,0,0,0,0.1L463.7,178.3z M460,4.1
	c0.8-1.3,0.4-2.9-0.9-3.7c-0.4-0.3-0.9-0.4-1.4-0.4h-25.4c-0.9,0-1.8,0.5-2.3,1.3l-22.9,36.8c-0.8,1.3-0.4,2.9,0.9,3.7
	c0.4,0.3,0.9,0.4,1.4,0.4h25.7c0.9,0,1.8-0.5,2.3-1.3L460,4.1z M316.1,208.6V68c0-1.7-1.4-3.1-3.1-3.1h-20.8c-1.7,0-3.1,1.4-3.1,3.1
	c0,0,0,0,0,0.1v88.1c0,1.7-1.4,3.1-3.1,3.1c-0.9,0-1.8-0.4-2.4-1.2L209.3,66c-0.6-0.7-1.5-1.1-2.4-1.1h-19.2c-1.7,0-3.1,1.4-3.1,3.1
	c0,0,0,0,0,0.1v140.6c0,1.7,1.4,3.1,3.1,3.1c0,0,0,0,0,0h20.4c1.7,0,3.1-1.4,3.1-3.1c0,0,0,0,0,0v-87.7c0-1.7,1.3-3.1,3-3.1
	c1,0,1.9,0.4,2.5,1.1l74.5,91.6c0.6,0.7,1.5,1.1,2.4,1.1H313C314.7,211.7,316,210.3,316.1,208.6z M158.8,207.3L92.1,66.7
	c-0.5-1.1-1.6-1.8-2.8-1.8H70.1c-1.2,0-2.3,0.7-2.8,1.8l-67,140.6c-0.7,1.5-0.1,3.4,1.4,4.1c0.4,0.2,0.9,0.3,1.4,0.3h23.1
	c1.2,0,2.3-0.7,2.8-1.8l20.5-42.9c0.5-1.1,1.6-1.8,2.8-1.8h54.6c1.2,0,2.3,0.7,2.8,1.8l20.1,42.9c0.5,1.1,1.6,1.8,2.8,1.8H156
	c1.7,0,3.1-1.4,3.1-3.1C159.1,208.2,159,207.7,158.8,207.3z M91,138.1H68.4c-1.7,0-3.1-1.4-3.1-3.1c0-0.5,0.1-0.9,0.3-1.3l11.3-23.9
	c0.7-1.5,2.5-2.2,4.1-1.5c0.7,0.3,1.2,0.8,1.5,1.5l11.4,23.9c0.7,1.5,0.1,3.4-1.5,4.1C91.9,138,91.5,138.1,91,138.1z"/>
<path class="st0" d="M1328,1884.4h-9.3v8.1h9.3V1884.4z"/>
</svg>
