<svg id="Layer_1" data-name="Layer 1" xmlns="http://www.w3.org/2000/svg" viewBox="0 0 20.37 19.25"><defs><style>.cls-1{fill:#128997;}</style></defs><path class="cls-1" d="M10.19,19.25l-.71-.7L7.66,16.76C3.38,12.58,0,9.28,0,5.74V5.41A5.6,5.6,0,0,1,5.85,0a5.91,5.91,0,0,1,4.34,1.83A6,6,0,0,1,14.5,0h.41a5.62,5.62,0,0,1,5.46,5.76c0,3.5-3.43,6.85-7,10.4-.9.87-1.65,1.62-2.43,2.38ZM5.67,2A3.64,3.64,0,0,0,2,5.48v.23c0,2.73,3.11,5.77,7.05,9.62l1.14,1.11,1.73-1.7c3.17-3.1,6.45-6.31,6.45-9A3.62,3.62,0,0,0,14.86,2H14.5a4,4,0,0,0-3.45,2l-.87,1.49L9.32,4a3.9,3.9,0,0,0-3.5-2Z"/></svg>