<svg id="Layer_1" data-name="Layer 1" xmlns="http://www.w3.org/2000/svg" viewBox="0 0 50 46"><defs><style>.cls-1{fill:#138796;}.cls-2{fill:none;stroke:#fff;stroke-width:2px;}.cls-3{fill:#fff;fill-rule:evenodd;}</style></defs><g id="Group_854" data-name="Group 854"><path id="pexels-gradienta-7130873" class="cls-1" d="M0,23H0A23,23,0,0,1,23,0h4A23,23,0,0,1,50,23h0A23,23,0,0,1,27,46H23A23,23,0,0,1,0,23Z"/><path id="iconmonstr-heart-thin" class="cls-2" d="M29.75,15a5.2,5.2,0,0,0-4.56,2.58A5.2,5.2,0,0,0,20.64,15a4.81,4.81,0,0,0-5,4.62,1.61,1.61,0,0,0,0,.31c0,3.71,4.43,7.51,9.55,12.59L27.72,30c3.89-3.8,7-7,7-10.11A4.8,4.8,0,0,0,30.08,15h-.33"/></g><path id="pexels-gradienta-7130873-2" class="cls-1" d="M0,23H0A23,23,0,0,1,23,0h4A23,23,0,0,1,50,23h0A23,23,0,0,1,27,46H23A23,23,0,0,1,0,23Z"/><path id="iconmonstr-heart-thin-2" class="cls-3" d="M29.75,15a5.2,5.2,0,0,0-4.56,2.58A5.2,5.2,0,0,0,20.64,15a4.81,4.81,0,0,0-5,4.62,1.61,1.61,0,0,0,0,.31c0,3.71,4.43,7.51,9.55,12.59L27.72,30c3.89-3.8,7-7,7-10.11A4.8,4.8,0,0,0,30.08,15h-.33"/></svg>