<svg id="Layer_1" data-name="Layer 1" xmlns="http://www.w3.org/2000/svg" viewBox="0 0 50 46"><defs><style>.cls-1{fill:#138796;}.cls-2{fill:#fff;}</style></defs><path id="pexels-gradienta-7130873" class="cls-1" d="M0,23H0A23,23,0,0,1,23,0h4A23,23,0,0,1,50,23h0A23,23,0,0,1,27,46H23A23,23,0,0,1,0,23Z"/><path class="cls-2" d="M25.19,33.93l-.7-.7-1.9-1.86c-4.44-4.35-7.95-7.78-7.95-11.44a2,2,0,0,1,0-.35,5.8,5.8,0,0,1,6-5.58,6.05,6.05,0,0,1,4.51,1.93A6.23,6.23,0,0,1,29.68,14h.43a5.81,5.81,0,0,1,5.64,6c0,3.62-3.56,7.11-7.33,10.8-.93.9-1.72,1.67-2.52,2.47ZM20.49,16a3.82,3.82,0,0,0-3.85,3.66,1,1,0,0,0,0,.24c0,2.85,3.24,6,7.35,10,.39.38.8.77,1.2,1.18L27,29.32c3.31-3.23,6.73-6.58,6.73-9.39A3.81,3.81,0,0,0,30.05,16H29.8l-.05-1v1a4.24,4.24,0,0,0-3.68,2.08l-.87,1.48-.86-1.48A4.21,4.21,0,0,0,20.7,16h-.21Z"/></svg>