<svg id="Layer_1" data-name="Layer 1" xmlns="http://www.w3.org/2000/svg" viewBox="0 0 148.33 11.52">
  <defs>
    <style>
      .cls-1 {
        fill: #231f20;
      }
    </style>
  </defs>
  <title>Logo_małe</title>
  <g>
    <path class="cls-1" d="M6.94.21l4.53,11.1H9.13L8,8.56H3.3L2.22,11.31H0L4.49.21ZM4,6.87H7.35L5.67,2.71H5.6Z"/>
    <path class="cls-1" d="M19.45,7.61V.21H21.5v11.1H19.74L14.06,3.49v7.82H12V.21H14.2Z"/>
    <path class="cls-1" d="M30.5,11.31,26.61,6.45,25.46,7.63v3.68h-2.2V.21h2.2v5l4.74-5h2.57L28.23,5l4.91,6.29Z"/>
    <path class="cls-1" d="M40.28.21l4.53,11.1H42.47L41.36,8.56H36.63l-1.07,2.75H33.34L37.83.21Zm-3,6.66h3.39L39,2.71h-.07Z"/>
    <g>
      <path class="cls-1" d="M55.24,11.31,51.35,6.45,50.2,7.63v3.68H48V.21h2.2v5l4.74-5h2.58L53,5l4.92,6.29Z"/>
      <path class="cls-1" d="M65.76,11.31A5.25,5.25,0,0,1,65.3,9a1.67,1.67,0,0,0-1.92-1.81H60.77v4.1H58.61V.21h5c2.84,0,4.23,1.32,4.23,3.38a2.68,2.68,0,0,1-2.45,2.82,2.31,2.31,0,0,1,2,2.29c.14,1.64.2,2.21.57,2.61ZM63.33,5.48c1.6,0,2.34-.53,2.34-1.73S64.93,2,63.33,2H60.77V5.48Z"/>
      <path class="cls-1" d="M76.83.21h2.38L74.91,7v4.28H72.76V7L68.46.21h2.45l3,4.71Z"/>
      <path class="cls-1" d="M81.53,7.28a2.58,2.58,0,0,0,2.89,2.5c1.38,0,2.26-.55,2.26-1.48S86,7.14,84.84,6.91l-2.11-.39C81,6.2,79.81,5.25,79.81,3.42,79.81,1.34,81.44,0,84,0c2.91,0,4.55,1.5,4.59,4l-2,.07A2.29,2.29,0,0,0,84,1.73c-1.31,0-2,.58-2,1.53s.58,1.09,1.59,1.29l2,.37c2.19.4,3.21,1.44,3.21,3.24,0,2.18-1.89,3.36-4.39,3.36-2.85,0-4.91-1.48-4.91-4.15Z"/>
    </g>
    <path class="cls-1" d="M93.51,11.31V2H89.59V.21H99.7V2h-4v9.27Z"/>
    <path class="cls-1" d="M108.4.21h2.38L106.48,7v4.28h-2.15V7L100,.21h2.45l3,4.71Z"/>
    <g>
      <path class="cls-1" d="M119.12,7.61V.21h2v11.1H119.4l-5.67-7.82v7.82h-2V.21h2.19Z"/>
      <path class="cls-1" d="M125.14.21v11.1h-2.2V.21Z"/>
      <path class="cls-1" d="M133,.21l4.53,11.1h-2.34l-1.11-2.75h-4.72l-1.08,2.75h-2.22L130.55.21Zm-3,6.66h3.38l-1.68-4.16h-.07Z"/>
      <path class="cls-1" d="M145.69,11.31,141.8,6.45l-1.15,1.18v3.68h-2.2V.21h2.2v5l4.74-5H148L143.42,5l4.91,6.29Z"/>
    </g>
  </g>
</svg>
