<svg id="Layer_1" data-name="Layer 1" xmlns="http://www.w3.org/2000/svg" viewBox="0 0 109 151.71"><path d="M45.51,62.22c.22-.43.15-.56-.3-.69a16.27,16.27,0,0,0-1.69-.33H43.3a2.32,2.32,0,0,0-.67,2,3.66,3.66,0,0,0,1,2.45,3.05,3.05,0,0,1,.24-.74,5.78,5.78,0,0,1,1-1.82A5.41,5.41,0,0,0,45.51,62.22Z"/><path d="M52.62,62.46v-4l-.58.85h-.2L48.2,61.14a17.84,17.84,0,0,1,2.17.47A19.63,19.63,0,0,1,52.62,62.46Z"/><path d="M53,71a34.91,34.91,0,0,0,0-4.34,1.37,1.37,0,0,0-.71-1.19,1.37,1.37,0,0,1-.35-.37h.76c0-.11,0-.21-.11-.26a4.8,4.8,0,0,0-.87-.93,7.89,7.89,0,0,0-1.88-1c-.72-.26-1.52-.33-2.28-.52a.73.73,0,0,0-.87.3c-.58.87-1.11,1.77-1.6,2.69a1.71,1.71,0,0,0-.17,1.43A2.75,2.75,0,0,0,45.86,68,16.21,16.21,0,0,0,48,69.42a23.28,23.28,0,0,1,5,3.27Z"/><path d="M30.93,87.53V88a3.47,3.47,0,0,0,1.77,1.77c0-1.14.13-2.16.2-3.33C32,86.56,31.27,86.69,30.93,87.53Z"/><path d="M47,83.53a11.51,11.51,0,0,0,1.26.52,2.57,2.57,0,0,0,2.71-.7l-1.3.28c-.52.11-.59,0-.54-.47a7.37,7.37,0,0,0,0-.94c0-.3-.22-.52-.44-.45s-.34,0-.34-.3v-.68l-.85.83a2.14,2.14,0,0,0-.73,1.51A.44.44,0,0,0,47,83.53Z"/><path d="M49.46,79.88a.45.45,0,0,0,0-.23v-.72c-.14.21-.27.43-.39.65s0,.2,0,.24A.66.66,0,0,0,49.46,79.88Z"/><path d="M57.69,32.51c.26-.13.54-.22.83-.33l.19-.1.5-.85H59a.77.77,0,0,1-.8,0,1.11,1.11,0,0,0-.89.11.66.66,0,0,0-.11.24c0,.06.18.54.26.8S57.54,32.64,57.69,32.51Z"/><path d="M57.76,38.73V38h-.11a5.71,5.71,0,0,0-.46,2.58c.26,0,.57,0,.67-.13a8.21,8.21,0,0,0,.72-1.12h-.67A1.24,1.24,0,0,1,57.76,38.73Z"/><path d="M38.64,79.3c.11-.28.22-.3.41,0l.29.37c.15,0,.3-.24.47-.24a1.85,1.85,0,0,1,.5.17,3.77,3.77,0,0,1-.54-.34c-.24-.18-.67-.18-.67-.63l-.5-.13L38.4,80h.11A3.32,3.32,0,0,1,38.64,79.3Z"/><path d="M69.94,64a.89.89,0,0,0,.21-.33,4.82,4.82,0,0,1,.22-1h-1l-.17-.43a13,13,0,0,0-.3,2.49l.56-.47Z"/><path d="M48,36.37a.68.68,0,0,0,.52.75V35.46A.78.78,0,0,0,48,36.37Z"/><path d="M58.52,34.44l.13-1.74h-.37c-1.07.29-1.15.37-1.33,1.48a4.17,4.17,0,0,0,0,.5A1.76,1.76,0,0,1,58.52,34.44Z"/><path d="M40.77,62.85a.37.37,0,0,0-.2.24.89.89,0,0,0,.43,1.1l.29.24.58.44c-.17-.68-.35-1.33-.54-2Z"/><path d="M52.43,91.44a2.71,2.71,0,0,1-1-.31,12.1,12.1,0,0,1-1.28-.56.77.77,0,0,1-.41-.74l.76-.15v-.15l-.2-.39h.48c-.13-.31-.24-.59-.35-.89s0-.35.26-.33h.89l-.19-.17-.11-.61,1.06.13c0-.39-.37-.69-.24-1.17l.83.57V83.09a1,1,0,0,0-.22.2,5.28,5.28,0,0,1-1.89,1.62,3,3,0,0,1-2.31.46,10.26,10.26,0,0,1-1.95-.61c-.65-.26-1.26-.63-1.91-.91a8.06,8.06,0,0,0-1.06-.32c-.94-.2-1.89-.37-2.82-.59-.48-.13-.48-.22-.24-.63.13.17.22.17.5,0a3.35,3.35,0,0,0-4.53,1.13l.37.26a1.32,1.32,0,0,1-.39.15,2.6,2.6,0,0,0-1,.13c-.32.13-.84.15-.93.67A2.3,2.3,0,0,0,33.81,86a17.45,17.45,0,0,0-.2,3.68.77.77,0,0,0,.44.67c.32.2.66.38,1,.55a21.58,21.58,0,0,0,5.18,1.4c2.16.37,4.18.61,6.28.91.85.13,1.69.26,2.52.46a15.22,15.22,0,0,1,3.42,1.41l.63.28V92.22A.89.89,0,0,0,52.43,91.44Z"/><path d="M58.88,95.16c.22.28.5.52.72.8a6.86,6.86,0,0,0,.61.81c.13.13.39.13.58.17a1.28,1.28,0,0,0,0-.39,5.61,5.61,0,0,0,0-.82l.72.54a6.29,6.29,0,0,1,.23-1.13h.16l.6.93c.2-.52.59-.95.41-1.54s-.34-1.17-.56-1.75c0-.15-.24-.3-.39-.41s-.56-.31-.82-.5-.63-.52-1-.82l-.45.49a3.48,3.48,0,0,0-1,3A1.13,1.13,0,0,0,58.88,95.16Z"/><path d="M61.48,104.33l.46.13a6.42,6.42,0,0,1,2,1.06l.85.54a9.86,9.86,0,0,0-.69-1c-.2-.24-.44-.46-.65-.7a1,1,0,0,0-.37-.28A2,2,0,0,0,61.48,104.33Z"/><path d="M76.39,76.07l-.93-.43a8.39,8.39,0,0,1-.15,2l1.32-.74a1.12,1.12,0,0,0-.15-.67C76.33,76,76.44,76.09,76.39,76.07Z"/><path d="M66.69,106a.32.32,0,0,0,.3,0,12.55,12.55,0,0,0,1.08-.71.44.44,0,0,0,.12-.62h0a7.24,7.24,0,0,1-.41-1c.13-.43,0-.62-.33-.67a4.07,4.07,0,0,1-1.32-.61c-.54-.32-.63-.3-1,.24a1.35,1.35,0,0,0-.15.26,1,1,0,0,0,.15,1.39Z"/><path d="M52.89,38.08h0l-.07,0H51.71c.43-.37.2-.59,0-.82a2.51,2.51,0,0,1-.35-.44H52l-.3-.78,1.56,1c-.11-.5-.24-1-.32-1.49a.77.77,0,0,0-.52-.57c-.59-.19-1.2-.41-1.78-.65a1.29,1.29,0,0,1-.48-.28c-.26-.19-.3-.19-.43.11a7.2,7.2,0,0,0-.48,3.18,4,4,0,0,0,.41,1.48c.57,1,1.24,1.84,1.87,2.75a1.71,1.71,0,0,0,.21.26c0-.28,0-.5.35-.5A2.19,2.19,0,0,1,52,40.16l.65.37H53a3.07,3.07,0,0,1,.2-.5l.24-.33h.11a8.08,8.08,0,0,0,.14,1.3h.15a6.42,6.42,0,0,0-.19-2A.82.82,0,0,0,52.89,38.08Z"/><path d="M74.9,95.53c-.85,0-.89,0-1.32.56C74.27,96.16,74.81,95.92,74.9,95.53Z"/><path d="M66.75,95.88V95a2.53,2.53,0,0,0-1.3,1l.93.11C66.64,96.14,66.75,96.07,66.75,95.88Z"/><path d="M57.73,92.82A.85.85,0,0,0,57.91,94C57.82,93.54,58,93.19,57.73,92.82Z"/><path d="M56.8,94.79l-.24-.13c.16,3.52.7,7,.83,10.56a7.24,7.24,0,0,1,2.32-1.54.76.76,0,0,0,.41-.56,7.37,7.37,0,0,1,.26-1.22,11.54,11.54,0,0,1-3.1-2.42c.37-.24.89-.07,1.39-.13-.22-.63-.41-1.26-.61-1.91.63,0,1,.43,1.56.65a2.88,2.88,0,0,0-.35-.85C58.47,96.4,57.63,95.62,56.8,94.79Z"/><path d="M67.44,96.05l.16.44a.81.81,0,0,0,.17-.24c.15-.33.3-.61.71-.7V94a4,4,0,0,0-.49.15,1,1,0,0,0-.68,1.17A3.6,3.6,0,0,1,67.44,96.05Z"/><path d="M54.5,4.48c-27.42,0-49.72,32-49.72,71.3s22.3,71.29,49.72,71.29,49.72-32,49.72-71.29S81.92,4.48,54.5,4.48ZM87.14,74a14.15,14.15,0,0,1-3.51,1.37,18.65,18.65,0,0,0-7.26,3.16A21.16,21.16,0,0,1,68.48,82c-1.1.26-2.16.46-3.31.7A17.2,17.2,0,0,0,61.29,84a18.46,18.46,0,0,0-1.86,1,2.68,2.68,0,0,0-.65.56c-.39.41-.33.78.21,1.13V86a2.58,2.58,0,0,1,.44.22c.13.13.21.28.32.41l.82-1.08.39.86c.16-.32.29-.71.7-.84L62,86l.24-.65.22.41.21-.7.83.65a2.15,2.15,0,0,1,.34-1.21l.59,1,.45-.55,1.26,1.35.87-.74.32,1,1-.65.1.58.52-.3v.5l1.56-.57a1.63,1.63,0,0,0,.13.48c0,.16.13.28.33.17a1.69,1.69,0,0,1,.63-.06v.45l.67-.6.13,1.28c.67-.11,1.21-.78,2-.52l-.26.58.61-.11H75c.48,0,.56,0,.39.5v.2h.93l-.37.39h.87c.56-.11.72,0,.65.6a4.11,4.11,0,0,1-.17.57v.34l.26-.17.56-.74v.59c0,.22.13.3.35.19L79,90a3.53,3.53,0,0,1,0,.46,1.06,1.06,0,0,1-.26.43,1,1,0,0,0-.26,1,3.69,3.69,0,0,1,0,.47,3.53,3.53,0,0,1,.54.13.47.47,0,0,1,.26.24.26.26,0,0,1-.19.24l-.85.52L77,94.34c-.23.19-.52.32-.78.5s-.36.3-.56.45h.78l-.24.52h1.33L77.22,97h1c.67,0,.73.11.56.74l-.15.54.58-.39h.29a1,1,0,0,1,0,.24c0,.17-.2.33-.31.52h1a3.22,3.22,0,0,1-1.43,2.17l1.34.15-.87.56a9.69,9.69,0,0,1-3.88,1.26l-1.12.3.36.31a2.25,2.25,0,0,1-.47.34c-.83.31-1.65.63-2.52.87a7.31,7.31,0,0,0-2.16,1.13,21.89,21.89,0,0,1-2,1.28,3.58,3.58,0,0,1-2.32.34,7.43,7.43,0,0,1-1.45-.54c-.69-.28-1.37-.63-2.17-.89a5.21,5.21,0,0,0-1.1-.21,1.42,1.42,0,0,0-1.28.49,6.08,6.08,0,0,0-1.5,2.76,31.4,31.4,0,0,0-.6,3.33,57.56,57.56,0,0,0-.42,8.3c0,1.24.16,2.5.22,3.73v4.29c0,.24.11.31.3.29h2.39a7.57,7.57,0,0,1,3.38-.13h.24a1.93,1.93,0,0,1,1.8.91,2.84,2.84,0,0,0,1,.67,4.41,4.41,0,0,0,2.38.28c1.11,0,2.17.24,3.32.19a24.34,24.34,0,0,1,8.82,1.52c-2,2.82-11.51,11.21-26.89,10.84a33.42,33.42,0,0,1-24.65-11,2.29,2.29,0,0,0,.59-.43c.24-.24.41-.52.65-.74a2.84,2.84,0,0,1,.61-.35h.1c.35-.32.76-.21,1.15-.23s1.11,0,1.65,0A4,4,0,0,0,36,129.18a1.65,1.65,0,0,1,.57-.37,1.91,1.91,0,0,1,.62-.13,15.82,15.82,0,0,0,2.17-.35,8.75,8.75,0,0,1,2.17,0A3,3,0,0,0,43,128.2a8.33,8.33,0,0,1,1.41-.15l.48-.11a7.88,7.88,0,0,1,1.19-.13,1.41,1.41,0,0,0,.82-.24,2.45,2.45,0,0,1,1.32-.36H50.3a.49.49,0,0,1,.24,0l1.06.52.41-.09h.31c.65,0,.71,0,.71-.76v-5.37a46.26,46.26,0,0,1,.39-6,41.17,41.17,0,0,0,.31-5.87c0-1.63,0-3.25-.16-4.88a4.49,4.49,0,0,0-.47-2,1.5,1.5,0,0,0-1.09-.91.63.63,0,0,1-.32-.15.42.42,0,0,1,0-.31.38.38,0,0,1,.24-.13h1.43a8.25,8.25,0,0,0-.2-2.16,1.36,1.36,0,0,0-.13-.72,1.56,1.56,0,0,0-.82-1.19,12.86,12.86,0,0,0-4.73-1.84c-1.79-.35-3.59-.65-5.39-1A31.09,31.09,0,0,1,36.47,93a27.29,27.29,0,0,1-3.22-1.56A16.25,16.25,0,0,0,30,90c-1-.26-2-.63-3-.93a1.82,1.82,0,0,0-1.13,0,4.23,4.23,0,0,1-.71.13.27.27,0,0,1-.24-.2h-1a.91.91,0,0,1-.43-.1,1.13,1.13,0,0,1,.21-.35,4.94,4.94,0,0,1,.59-.43A6.6,6.6,0,0,1,22,86.75l.24-.23c-.17-.31-1-.44-.26-1L21.35,85c-.22-.24-.17-.32.13-.39l.54-.13A3.65,3.65,0,0,1,21.7,84a2,2,0,0,1-.28-.52c0-.24,0-.37.28-.37h.73l-.17-.46c-.13-.32,0-.34.22-.41H23l-.32-.74h.93a1.7,1.7,0,0,0-.18-.49,2.29,2.29,0,0,1,0-.37h.39l.61.17v-.63c0-.3.15-.34.39-.15l.59.48.17-.44.48.18v-.44h.37a2.88,2.88,0,0,1,.1-2.16l.76,1a2.81,2.81,0,0,1,0-.41s0-.26.18-.28.19,0,.28.15l.24.26.19-.67c.13-.35.22-.37.52-.15l.54.41a4.12,4.12,0,0,1,.52-.72l.57.35.26-.54.39.34.32-.58a1.12,1.12,0,0,1,.33-.28c0,.1.19.19.21.3s.2.63.31,1a1.71,1.71,0,0,0,0-.32,3.51,3.51,0,0,1,.26-1c.11-.32.41-.41.65,0a6.29,6.29,0,0,1,.32.7,2.28,2.28,0,0,0,.18.52l.45-.5.24.43.26-.86v-.22c0-.07,0-.13.13-.13h.15v.17a.27.27,0,0,0,.48,0,8.21,8.21,0,0,1,.58-.6.72.72,0,0,1,.28-.13v.54c.52-.54.74-.7,1.07-.74v.74l.32-.41.39-.31.22,1h.35a4.76,4.76,0,0,1-.2-.74c0-.26,0-.5.37-.47V75H39v-.61A1,1,0,0,1,39,74a.75.75,0,0,1,.26-.54c.13-.06.3.22.45.33L40,74l.24-.82,1,.5a.84.84,0,0,1,.17-.59c.17-.19.17-.32.43-.13l.76.61a2.27,2.27,0,0,1,.2-.57,3.3,3.3,0,0,1,.19-.43,1.73,1.73,0,0,1,.44.37,2.28,2.28,0,0,1,.23.56l.78-1.45h.16c.23.56.45,1.15.69,1.71l.22-.32.19.11.61-1.07a4.74,4.74,0,0,1,.41,1.93l.63-.71.22.52.45-.44h.13v.52c0,.2,0,.29.24.29H49c0,.32-.35.43-.57.56a.5.5,0,0,0-.29.64v.07l.42-.62h.13v1a.34.34,0,0,0,.36.32h.05c.19,0,.19-.18.19-.28a2.19,2.19,0,0,1,.46-.74c.19-.22.26,0,.32,0a4,4,0,0,1,.26.56l.26-.34.31-.42.41-.26a2.23,2.23,0,0,1,.26.48,4.54,4.54,0,0,1,.13.72c.76-.61.61-1.37.43-2.17a.23.23,0,0,0-.11-.2c-.8-.8-1.62-1.6-2.47-2.36a9.42,9.42,0,0,0-2-1.08,11.78,11.78,0,0,1-2.71-1.76c-1.28-1.19-2.62-2.34-3.94-3.46-.57-.48-1.15-.91-1.76-1.35a10.24,10.24,0,0,0-4.33-1.84,3.45,3.45,0,0,1-1.13-.39c-.28-.15-.26-.28,0-.48l.43-.3-.65-1.28.46-.17L33,58.58v-.11h1.41c-.18-.28-.31-.47-.44-.71s-.15-.46.26-.52l.57-.13h-.13c-.13-.15,0-.26,0-.31l.54-.13v-.1l-2.71-1,.78-.65-.65-.52c-.26-.22-.22-.37,0-.46a8.08,8.08,0,0,1,1.08-.17l-.5-.61h1.46l-.42-.65c-.13-.22,0-.3.18-.35h.37L34,50.41l.93.21h.26a1.19,1.19,0,0,1,1.1.87h.11l.18-1a2.18,2.18,0,0,1-.85-1.39l.67.13H37c.17,0,.26,0,.32-.19s.24-.42.52-.16l.74.68V48.24l.91.76a1.1,1.1,0,0,1,.22-.52,2.77,2.77,0,0,1,.28-.54c.19.45.37.84.54,1.28l.76-1.3h.13l.45.91.74-1.17a1.83,1.83,0,0,1,0,1.45c.46,0,.46,0,.48.41.63-.26.63-.26.63.46A1.5,1.5,0,0,1,45,49.35l-.3,1.17c.24,0,.26.15.21.34-.13.59-.28,1.18-.39,1.76v.72a4.26,4.26,0,0,1,1.28.13l1.2.23-.85.48H47l-.1.39c0-.09.16-.17.18-.26a1.93,1.93,0,0,0,0-.48,3.09,3.09,0,0,0,0-.43h.11l.5.54.24-.39v.83l.63-.2a1.47,1.47,0,0,1,.21-.39c.15-.24.26-.24.37,0s.15.46.24.65l.67-.8c.5.28.26.76.39,1.13.56-.35.56-.35.74,0l.32-.26a2.28,2.28,0,0,1,.61-.24s.22.19.22.28a6.67,6.67,0,0,1-.13,1l.41-.13c.22,0,.3,0,.26.23l-.13.46h.13a3.72,3.72,0,0,1,.19-.65c0-.72.2-1.43.22-2.17,0-1.73.2-3.49.2-5.24s.15-1.26-1.26-1.87A9.88,9.88,0,0,0,50,45.3c-.58,0-.58-.18-.5-.72-.3-.11-.6-.2-.89-.33s-.28-.23,0-.39.42-.24.63-.34.33-.13.44.11.1,0,.17,0h1c-.24-.78-.93-1-1.5-1.37v-.11H51c-.85-1.19-1.65-2.4-2.54-3.57a3.71,3.71,0,0,0-2.66-1.39,1,1,0,0,0-.85.24,5.19,5.19,0,0,1-1,.5v-.76a1.9,1.9,0,0,0-.15-.46v-.13c-.17-.52-.56-.65-1.06-.73a7.27,7.27,0,0,1-1.32-.39,1.87,1.87,0,0,1-.39-.22c-.28-.2-.28-.39,0-.54l.84-.33-.71-.52v-.21l1.12-.16-.43-1,.61.13c.47.13.5,0,.39-.37V32.1a3.12,3.12,0,0,1,1.36.41L44,31.32l1,.3-.15-1.69H45l.93.54v-.78l.76.43-.3-1.49.56.17V27.42a2.74,2.74,0,0,1,1.45,1v-.67l.85.76.45-1c-.5-.45-1.23-.69-1.56-1.47h1l-1-1.28H49.2l-.52-.91h1.17l-.52-1,1.19.35-.39-.91,1.36.84v-.65h.35V21.26l1.13.41a4.75,4.75,0,0,0-.13-.91h.69c0-.39-.13-.84.26-1.21l.46.54.36-.58c.2-.5.44-.53.76,0a3.71,3.71,0,0,1,.28.41l.11.19L56.5,19h.13l.8,1.54c.26-.41.41-1,1-1.09a3.17,3.17,0,0,0,.28,1,3.72,3.72,0,0,1,.48-.41s.21-.13.26,0a.51.51,0,0,1,.15.3,3.84,3.84,0,0,1,0,.48c.39-.17.74-.37,1.13-.5s.43-.11.41.33,0,.58,0,.91l.45-.11.11.89.56-.29v1.09l.68-.35a3.55,3.55,0,0,0-.31,2.88l.31-.43.36.72.55-.63a2.68,2.68,0,0,0,.1.89,2.53,2.53,0,0,1,0,1l.94-.67.13.8.76-.5h.1v1.4h.55c.34,0,.41,0,.3.41l-.26.6h1a.8.8,0,0,1-.11.37,2.67,2.67,0,0,1-.43.46,4.49,4.49,0,0,1,.46.41s.13.17.1.24a.3.3,0,0,1-.23.13h-.78l.34.69h-.26a1.19,1.19,0,0,0-.86.24.59.59,0,0,0-.37.59,1.28,1.28,0,0,1,0,.39h-.65a2,2,0,0,0-.74,2.36l.93-.59a5.74,5.74,0,0,1-.21,1l1.12-.72.13,1.06L67,35.67V37h.44v.56a.67.67,0,0,1,0,.2,2.3,2.3,0,0,1-.18.5l.59-.16L67.6,39l.76-.29a2.66,2.66,0,0,1-1.65,2.17H67l.28.35a1,1,0,0,1-.19.26.81.81,0,0,1-.3.13l-1.15.17c-.59.13-1.17.24-1.74.39-.21,0-.39.24-.58.35v.11h1.12l-.82.67.91.19a.9.9,0,0,1-.43.76c-.5.3-1,.61-1.52.87s-1.32.61-2,.91a2.19,2.19,0,0,0-.41.26l1,.67v.13h-.67a5.1,5.1,0,0,0-1.9.24,1.22,1.22,0,0,0-.83.69c-.21.47-.4,1-.56,1.43-.41,1.41-.8,2.84-1.19,4.34-.11.37-.22.71-.29,1.06a35.32,35.32,0,0,0-.28,6.74c0,1.71.13,3.4.22,5.11a3,3,0,0,0,.11,1,1.11,1.11,0,0,0,.17.3c.54-.26,1.09-.5,1.65-.71a12.92,12.92,0,0,1,4-.63c1.34,0,2.68-.13,4-.24a3,3,0,0,0,1.6-.54,1.73,1.73,0,0,0,.46-2.17,3.21,3.21,0,0,0-.78-.78c-.44-.28-.91-.5-1.37-.78l-2-1.3c-.1,0-.15-.24-.23-.35a1.41,1.41,0,0,1,.39-.19,4.45,4.45,0,0,1,.73,0h.24a5,5,0,0,0-.26-1.15,1.44,1.44,0,0,0-.52-.84c-.15-.11-.11-.26,0-.31h.37l.13-.61.56.24V57.3l.87.22v-.87l.59.13v-.93a.35.35,0,0,1,.15-.28.38.38,0,0,1,.3.15,4.23,4.23,0,0,1,.33.41l.13-.54.65.43a2,2,0,0,0,.13-.34c0-.24.23-.31.43-.18a4,4,0,0,1,.45.37,1.77,1.77,0,0,1,.26.35,1.31,1.31,0,0,0,0-.28,4.29,4.29,0,0,1,.22-.72.87.87,0,0,1,.41-.35l.33.31.19.28a1.87,1.87,0,0,1,.35-.67c.26-.24.35.19.54.24s.18-.52.28-.76.18-.18.26-.26a1.29,1.29,0,0,1,.22.3v.56c.08-.14.17-.27.26-.41s.26-.28.41,0a.3.3,0,0,0,.26,0,.33.33,0,0,0,.24-.15l.28.69.59-.52c.24.44.43.81.67,1.2a7.94,7.94,0,0,1,.5-.78c.17-.24.15-.22.21-.2a.51.51,0,0,1,.26.22.58.58,0,0,1,0,.32,1.09,1.09,0,0,0,.18.7,2.14,2.14,0,0,1,1.54-.29,4.26,4.26,0,0,1-.13,1.28h.56c.26,0,.35.11.24.37a4.29,4.29,0,0,1-.33.61h.13c.42,0,.46.15.24.5l-.5.8.46.11c-.2.58-.74.71-1.13,1l.37.76c-1.32,0-2.17.84-3.14,1.36.26.13.56.11.65.48h-.13a13.39,13.39,0,0,0-2.49.72,10,10,0,0,0-2.5,1.62,10.25,10.25,0,0,1-2.06,1.52,9.3,9.3,0,0,1-2.16.78,18.59,18.59,0,0,1-4.34.3,12,12,0,0,0-3.1.41,4.43,4.43,0,0,0-2,1,1.83,1.83,0,0,0-.56,1.11H56.9c0,.52-.11.52-.54.56l-.87.18a.34.34,0,0,0-.3.39v6.32a1.41,1.41,0,0,0,0,.29L56.35,78v1.52h.45c.18,0,.24.17,0,.32s-.26.33-.43.41A1.08,1.08,0,0,0,56,81a1,1,0,0,0,0,.24l.19,3.84a9.72,9.72,0,0,1,3.69-2.5A21.43,21.43,0,0,1,65,81.38c2-.35,4-.76,6-1.19a6.61,6.61,0,0,0,1.77-.65,3.46,3.46,0,0,0,1.52-4.19,1.12,1.12,0,0,0-.24-.19l-.91-.37-.21-.17,1.08.13c-.39-.5-.39-1.26-1.24-1.39l.35-.28L73,73l-1.34-.78a14.6,14.6,0,0,1-2.93-2,2.7,2.7,0,0,1-.3-.52l.54-.26h1.21A3,3,0,0,1,70,67.27l1,.39A2.91,2.91,0,0,1,71,67a4.52,4.52,0,0,1,.13-.82c0-.26.24-.31.43-.11a6.25,6.25,0,0,1,.61.65,1.57,1.57,0,0,1,.19.26,3.17,3.17,0,0,1,.28-1c.11-.3.18-.28.37-.11l.5.44a5.66,5.66,0,0,1,.28-.72c.18-.37.33-.37.59,0a3.31,3.31,0,0,0,.45.54,2.75,2.75,0,0,1,.15-.36,3.28,3.28,0,0,1,.46-.76c.19-.26.32-.24.5,0a8.85,8.85,0,0,1,.5.84l.13-.15s.17-.17.23-.15.29,0,.29.26,0,.19.15.26l.82-.85a.24.24,0,0,1,.34,0l0,0,.41.74.46-.61.47.91c.22-.23.35-.6.76-.71l.31,1L81.2,66l.31.91c.76-.87.86-1,1.21-1.06v1c.39,0,.41,0,.39.28v.39l.59-.37c.21-.15.34,0,.41.17s0,.48.15.74l.76-.67.11.87L86.19,68a3.33,3.33,0,0,1-.58,1.54,2.81,2.81,0,0,1,.58,0l.39.19-.28.3.43.18-.37.39c.52.15.52.15.52.5s.74,0,1,.39L87.1,72l.3.42c.24.13.29.28,0,.48a4.17,4.17,0,0,1-.62.49l.82.29A2.91,2.91,0,0,1,87.14,74Z"/><path d="M54.48,0C24.38,0,0,33.94,0,75.85s24.38,75.86,54.48,75.86S109,117.72,109,75.85,84.52,0,54.48,0Zm0,147.82C26.67,147.82,4,115.5,4,75.78s22.64-72,50.47-72S105,36.05,105,75.78,82.33,147.82,54.5,147.82Z"/></svg>