<svg id="Layer_1" data-name="Layer 1" xmlns="http://www.w3.org/2000/svg" viewBox="0 0 37.2 51.78"><defs><style>.cls-1{fill:#040404;}</style></defs><path class="cls-1" d="M16,18.62v0Z"/><path class="cls-1" d="M34.29,16.41a26.6,26.6,0,0,0-3.66-7.74,18.15,18.15,0,0,0-5.41-5.21A12.48,12.48,0,0,0,12,3.46,18.15,18.15,0,0,0,6.57,8.67a26.6,26.6,0,0,0-3.66,7.74,34,34,0,0,0,0,19,26.6,26.6,0,0,0,3.66,7.74A18,18,0,0,0,12,48.31a12.43,12.43,0,0,0,13.24,0,18,18,0,0,0,5.41-5.2,26.6,26.6,0,0,0,3.66-7.74,34,34,0,0,0,0-19Zm-4.46,8.31c.09.05.1.1,0,.17a1.2,1.2,0,0,1-.21.17l.28.09-.15.11a4.75,4.75,0,0,1-1.2.47,6.41,6.41,0,0,0-2.48,1.08A7.26,7.26,0,0,1,23.38,28c-.38.09-.74.15-1.14.23a5.75,5.75,0,0,0-1.32.46,6.49,6.49,0,0,0-.64.33,1.3,1.3,0,0,0-.22.19c-.13.14-.11.27.08.39v-.24a.61.61,0,0,1,.14.07,1.1,1.1,0,0,1,.11.14l.29-.37.13.3c.05-.11.1-.25.24-.29l.1.16.08-.22.07.14.08-.23.28.22a.79.79,0,0,1,.12-.42l.2.34.15-.19.43.46.3-.25.11.34.32-.22,0,.2.18-.11v.17l.53-.19a.75.75,0,0,0,.05.16c0,.08,0,.1.11.06a.5.5,0,0,1,.21,0v.16l.23-.21.05.43c.22,0,.41-.26.67-.17l-.09.2.21,0h.09c.16,0,.19,0,.13.17v.07H26l-.13.13h.3c.19,0,.24,0,.22.21s-.05.12-.06.19,0,.07,0,.12l.09-.06.19-.25v.2c0,.07.05.1.12.06l.2-.09v.16a.38.38,0,0,1-.09.15.31.31,0,0,0-.09.33v.16l.19,0a.14.14,0,0,1,.09.08.09.09,0,0,1-.07.08l-.29.18-.39.3a2.46,2.46,0,0,1-.27.17,1.6,1.6,0,0,0-.19.16h.27L26,32.7h.46l-.12.4h.34c.23,0,.26,0,.2.26l0,.18.2-.13h.09a.11.11,0,0,1,0,.08c0,.06-.07.11-.1.18h.32a1.11,1.11,0,0,1-.49.74l.46.05-.29.19a3.47,3.47,0,0,1-1.33.43l-.38.1.12.11a.64.64,0,0,1-.16.11,7.93,7.93,0,0,1-.86.3,3.05,3.05,0,0,0-.74.38,7.15,7.15,0,0,1-.68.44,1.24,1.24,0,0,1-.8.12,2.26,2.26,0,0,1-.49-.19c-.24-.09-.47-.21-.74-.3a1.59,1.59,0,0,0-.38-.07.45.45,0,0,0-.43.17,2,2,0,0,0-.51.94,7.16,7.16,0,0,0-.21,1.14,17.83,17.83,0,0,0-.14,2.83c0,.42.05.85.07,1.27V43.9c0,.08,0,.1.1.09h.82a2.63,2.63,0,0,1,1.15,0h.08a.67.67,0,0,1,.62.31,1,1,0,0,0,.32.23,1.44,1.44,0,0,0,.82.09c.37,0,.74.09,1.13.07a8.33,8.33,0,0,1,3,.52,11.63,11.63,0,0,1-9.18,3.7,11.37,11.37,0,0,1-8.41-3.75A.66.66,0,0,0,10,45c.08-.08.14-.18.22-.25a.72.72,0,0,1,.21-.12h0c.12-.11.26-.08.4-.08h.56a1.34,1.34,0,0,0,.8-.43.63.63,0,0,1,.2-.13.52.52,0,0,1,.21,0,6.69,6.69,0,0,0,.74-.12,3.05,3.05,0,0,1,.74,0,1.06,1.06,0,0,0,.5-.05,2.61,2.61,0,0,1,.48,0l.16,0a2.71,2.71,0,0,1,.41,0,.57.57,0,0,0,.28-.08.79.79,0,0,1,.45-.13h.82l.36.18.14,0h.11c.22,0,.24,0,.24-.26V41.48a17.66,17.66,0,0,1,.13-2.06,13.34,13.34,0,0,0,.11-2c0-.56,0-1.11-.05-1.67a1.45,1.45,0,0,0-.17-.67.49.49,0,0,0-.37-.31l-.11-.05a.21.21,0,0,1,0-.11.12.12,0,0,1,.08,0h.49a3.17,3.17,0,0,0-.06-.74.47.47,0,0,0,0-.25.53.53,0,0,0-.28-.4,4.3,4.3,0,0,0-1.61-.63l-1.84-.33a9.62,9.62,0,0,1-1.92-.47,8.57,8.57,0,0,1-1.1-.53,5.14,5.14,0,0,0-1.12-.51c-.35-.09-.69-.22-1-.32a.65.65,0,0,0-.39,0,1,1,0,0,1-.24,0,.11.11,0,0,1-.09-.06H8.14a.42.42,0,0,1-.15,0,.75.75,0,0,1,.07-.12l.2-.15a2.26,2.26,0,0,1-.74-.45l.08-.08c0-.1-.32-.15-.08-.35L7.3,29c-.07-.08-.06-.11,0-.13l.18,0-.11-.16a.77.77,0,0,1-.1-.18c0-.08,0-.12.1-.12h.25l-.06-.16c0-.11,0-.12.08-.14h.14l-.11-.25H8A.49.49,0,0,0,8,27.63V27.5h.14l.2.06v-.21c0-.11,0-.12.14-.05l.2.16.05-.15.17.06v-.15H9a1,1,0,0,1,0-.74l.26.33a.33.33,0,0,1,0-.14s0-.09.06-.1.06,0,.09.05l.09.09.06-.23c.05-.12.08-.12.18-.05l.18.14a2.5,2.5,0,0,1,.18-.24l.19.12.09-.19.14.12.11-.2a.52.52,0,0,1,.11-.1s.06.07.07.11.07.21.11.35v-.11a1.37,1.37,0,0,1,.08-.35c0-.11.14-.14.23,0s.07.15.11.23a.54.54,0,0,0,.06.18l.15-.17.08.15.09-.3V26.1s0-.05.05-.05h0s0,0,0,.06.09.11.16,0a1.89,1.89,0,0,1,.2-.2l.1-.05v.19c.17-.19.25-.24.36-.26v.26l.11-.14.13-.11.08.34h.12a1.82,1.82,0,0,1-.07-.25c0-.09,0-.17.12-.16v-.17h.14a.74.74,0,0,1,0-.21.24.24,0,0,1,0-.12.23.23,0,0,1,.09-.18s.1.07.15.11l.09.1.08-.28.34.17a.3.3,0,0,1,0-.2c.06-.06.06-.11.15,0l.26.2a.93.93,0,0,1,.07-.19l.06-.15a.64.64,0,0,1,.15.13.77.77,0,0,1,.08.19l.27-.49h0l.24.58.07-.11.07,0,.21-.37a1.86,1.86,0,0,1,.14.66l.21-.24.08.18.15-.15h0v.18c0,.06,0,.09.09.09h.21c0,.11-.12.15-.19.19a.17.17,0,0,0-.1.22v0l.14-.22h0V26c0,.08.08.11.15.11s.06-.06.06-.1a.68.68,0,0,1,.16-.25c.06-.08.09,0,.11,0l.09.19.09-.12.1-.14.14-.09a.65.65,0,0,1,.09.16,1.09,1.09,0,0,1,0,.25c.26-.21.21-.47.15-.74a.08.08,0,0,0,0-.07c-.27-.27-.55-.54-.84-.8a3,3,0,0,0-.68-.37,4,4,0,0,1-.92-.6c-.44-.41-.9-.8-1.35-1.19a6.7,6.7,0,0,0-.6-.45,3.37,3.37,0,0,0-1.48-.63,1.34,1.34,0,0,1-.38-.14c-.1-.05-.09-.09,0-.16l.14-.1-.22-.44.16-.06L11.27,20v0h.48a2.36,2.36,0,0,1-.15-.25c0-.08,0-.15.09-.17l.19-.05h0c-.05-.05,0-.09,0-.1l.18,0v0L11.1,19l.26-.22-.22-.18c-.09-.07-.07-.13,0-.16s.24,0,.37,0l-.17-.21h.5l-.14-.22c0-.08,0-.11.05-.12h.13l-.26-.6.32.07H12a.43.43,0,0,1,.38.3h0l.06-.33a.73.73,0,0,1-.29-.47l.23,0h.2c.06,0,.09,0,.11-.06s.08-.14.18-.05a2.73,2.73,0,0,1,.25.23v-.46l.31.26a.37.37,0,0,1,.08-.18,1.11,1.11,0,0,1,.09-.19c.07.16.13.29.19.44l.26-.44h0l.16.31.25-.4a.6.6,0,0,1,0,.49c.15,0,.15,0,.16.14.22-.09.22-.09.22.16a.5.5,0,0,1,.42-.22l-.11.4c.08,0,.09.06.08.12s-.1.4-.14.6v.25a1.57,1.57,0,0,1,.44,0l.42.08-.29.16H16l0,.13s.06-.05.07-.08v-.31h0l.17.18.09-.13v.28l.21-.07.07-.13c.06-.08.09-.08.13,0s.05.16.08.22l.23-.27c.17.09.09.26.13.38.2-.11.2-.11.26,0l.11-.09.2-.08s.08.07.08.1a2,2,0,0,1-.05.34l.14,0c.08,0,.11,0,.09.08l0,.15h0a.94.94,0,0,1,.07-.22c0-.24.07-.49.07-.74,0-.59.07-1.19.07-1.79s.05-.43-.43-.64a3.19,3.19,0,0,0-.74-.3c-.2,0-.2-.06-.17-.24l-.3-.11c-.1,0-.1-.09,0-.14l.21-.12c.05,0,.11,0,.15,0s0,0,.06,0h.35c-.08-.27-.32-.34-.51-.46v0h.54c-.28-.41-.56-.82-.86-1.22a1.33,1.33,0,0,0-.91-.48.31.31,0,0,0-.29.09A2.16,2.16,0,0,1,15,13v-.26a.75.75,0,0,0,0-.16v0a.37.37,0,0,0-.36-.25l-.46-.14L14,12c-.1-.07-.1-.13,0-.19l.29-.11-.24-.18v-.07l.38-.05-.15-.33.21,0c.16,0,.17,0,.13-.13v0a1.11,1.11,0,0,1,.47.14L15,10.69l.34.1,0-.57h0l.32.18v-.27l.26.15-.11-.51.2.06V9.36a.88.88,0,0,1,.49.34V9.47l.29.26L17,9.39c-.17-.16-.42-.24-.53-.51h.36l-.36-.43h.37l-.18-.31H17l-.17-.34.4.12-.13-.32.47.29V7.67h.11V7.26l.39.14a2.87,2.87,0,0,0,0-.31h.24c0-.14,0-.29.09-.42l.16.19.12-.2c.07-.17.15-.18.26,0a.71.71,0,0,1,.1.14l0,.06.26-.37h0L19.6,7c.09-.14.14-.33.34-.37A1,1,0,0,0,20,7a1.07,1.07,0,0,1,.16-.14s.08,0,.09,0a.14.14,0,0,1,.05.1.49.49,0,0,1,0,.17A3.29,3.29,0,0,1,20.73,7c.13,0,.15,0,.14.11s0,.2,0,.31l.15,0,0,.3.19-.09v.37l.23-.12a1.21,1.21,0,0,0-.1,1l.1-.14.13.24.18-.21a.78.78,0,0,0,0,.3c0,.09,0,.21,0,.32l.32-.23,0,.28.26-.17h0v.46h.18c.12,0,.14,0,.11.14l-.09.21H23a.28.28,0,0,1,0,.13c-.05.05-.1.11-.15.15s.11.09.15.14.05.06,0,.08a.1.1,0,0,1-.08,0h-.27l.12.24H22.7a.34.34,0,0,0-.29.08.21.21,0,0,0-.13.2.29.29,0,0,1,0,.13h-.22a.69.69,0,0,0-.25.81l.32-.2a1.77,1.77,0,0,1-.08.33l.39-.24,0,.36.36-.06v.44H23v.25a.58.58,0,0,1-.06.17l.2,0-.07.31.26-.09a.93.93,0,0,1-.57.74h.09l.09.12a.26.26,0,0,1-.06.08.27.27,0,0,1-.11,0l-.39.06-.59.13c-.08,0-.14.08-.2.12v0H22l-.28.23.31.06a.3.3,0,0,1-.15.26c-.17.1-.34.21-.51.3l-.68.31a.55.55,0,0,0-.14.09l.34.23v0h-.23a1.79,1.79,0,0,0-.65.08.42.42,0,0,0-.28.24,4.14,4.14,0,0,0-.19.49c-.14.48-.27,1-.41,1.48,0,.12-.07.24-.09.36a11.78,11.78,0,0,0-.1,2.3c0,.58,0,1.16.07,1.74a1,1,0,0,0,0,.34l.06.1a5.55,5.55,0,0,1,.56-.24A4.21,4.21,0,0,1,21,22.73c.46,0,.92,0,1.38-.08a1,1,0,0,0,.55-.18.59.59,0,0,0,.15-.74,1,1,0,0,0-.26-.27c-.15-.1-.31-.17-.47-.27s-.46-.29-.69-.44c0,0,0-.08-.08-.12l.13-.07H22a1.7,1.7,0,0,0-.09-.39.59.59,0,0,0-.18-.29.05.05,0,0,1,0-.1h.13l0-.21.19.09v-.1l.3.07v-.29l.2,0v-.32a.11.11,0,0,1,.05-.09.13.13,0,0,1,.1.05l.12.14,0-.19.22.15a.43.43,0,0,0,.05-.12c0-.08.08-.1.14-.06l.16.13.09.12v-.1a1.09,1.09,0,0,1,.07-.24.24.24,0,0,1,.14-.12l.11.1.07.1a.57.57,0,0,1,.12-.23c.09-.08.12.07.18.08s.06-.18.1-.26.06-.06.09-.09l.07.11v.19l.09-.14c.05,0,.09-.1.14,0a.14.14,0,0,0,.09,0,.11.11,0,0,0,.08-.05l.1.23.2-.17c.08.15.15.27.23.4.06-.09.11-.18.17-.26s.05-.08.07-.07a.14.14,0,0,1,.09.08.2.2,0,0,1,0,.11.35.35,0,0,0,.06.23.73.73,0,0,1,.52-.09,1.53,1.53,0,0,1,0,.43h.19c.09,0,.12,0,.08.13a2.12,2.12,0,0,1-.11.21h0c.14,0,.15.05.08.17l-.17.27.15,0c-.06.2-.25.24-.38.32l.12.26a2.18,2.18,0,0,0-1.07.47c.09,0,.19,0,.22.16h0a4.87,4.87,0,0,0-.85.24,3.48,3.48,0,0,0-.85.56,4,4,0,0,1-.7.52,4.07,4.07,0,0,1-.74.26,6.71,6.71,0,0,1-1.48.11,3.76,3.76,0,0,0-1.06.14,1.43,1.43,0,0,0-.67.34.69.69,0,0,0-.19.38h.48c0,.18,0,.18-.18.19l-.3.06a.13.13,0,0,0-.1.14v2.16a.14.14,0,0,0,0,.09l.4,0v.52h.16c.06,0,.08.06,0,.11s-.09.11-.15.14a.39.39,0,0,0-.14.26v.08l.07,1.31a3.17,3.17,0,0,1,1.25-.85,6.81,6.81,0,0,1,1.77-.42c.68-.12,1.36-.26,2-.41a2.17,2.17,0,0,0,.6-.22,1.18,1.18,0,0,0,.52-1.43l-.08-.07L25,25.53l-.07-.06.36,0c-.13-.17-.13-.43-.42-.47l.12-.1-.05,0-.46-.27a5.24,5.24,0,0,1-1-.69,1.62,1.62,0,0,1-.1-.18l.18-.09h.42a1.05,1.05,0,0,1-.07-.74l.36.14a.67.67,0,0,1,0-.2,1.35,1.35,0,0,1,0-.28c0-.09.08-.1.15,0l.21.23a.35.35,0,0,1,.06.09.9.9,0,0,1,.1-.34c0-.11.06-.1.12,0l.17.15a1.86,1.86,0,0,1,.1-.25c.06-.12.11-.12.2,0a1.26,1.26,0,0,0,.16.19.5.5,0,0,1,.05-.13,1.35,1.35,0,0,1,.15-.26c.07-.09.11-.08.17,0a1.69,1.69,0,0,1,.17.29l.05-.05s.06-.06.08-.05a.09.09,0,0,1,.1.09c0,.08,0,.06.05.08l.28-.28a.07.07,0,0,1,.12,0l.14.25.16-.21.16.31c.08-.08.12-.21.26-.24l.11.34.12-.2.1.31c.26-.3.3-.33.42-.36v.34c.13,0,.14,0,.13.1V23l.2-.12c.08-.05.12,0,.14.06a.92.92,0,0,0,.05.25L29,23l0,.29.37-.08a1.15,1.15,0,0,1-.2.53h.2l.13.07-.09.1.14.06-.12.13c.18,0,.18,0,.18.17s.25,0,.32.13l-.26.18Z"/><path class="cls-1" d="M18.6,0C8.32,0,0,11.58,0,25.89S8.32,51.78,18.6,51.78s18.6-11.6,18.6-25.89S28.85,0,18.6,0ZM30.8,43.22a18.22,18.22,0,0,1-5.48,5.27,12.66,12.66,0,0,1-13.44,0A18.22,18.22,0,0,1,6.4,43.22a26.83,26.83,0,0,1-3.69-7.79,33.38,33.38,0,0,1-1.35-9.54,33.38,33.38,0,0,1,1.35-9.54A27,27,0,0,1,6.4,8.55a18.3,18.3,0,0,1,5.48-5.26,12.61,12.61,0,0,1,13.44,0A18.3,18.3,0,0,1,30.8,8.55a27,27,0,0,1,3.69,7.8,33.38,33.38,0,0,1,1.35,9.54,33.38,33.38,0,0,1-1.35,9.54A26.83,26.83,0,0,1,30.8,43.22Z"/><path class="cls-1" d="M15.53,21.24c.08-.15.06-.19-.1-.24a5.4,5.4,0,0,0-.58-.11h-.07a.79.79,0,0,0-.23.68,1.28,1.28,0,0,0,.36.84,1,1,0,0,1,.08-.25,1.9,1.9,0,0,1,.33-.63A1.94,1.94,0,0,0,15.53,21.24Z"/><path class="cls-1" d="M18,21.32V20l-.2.29h-.07l-1.24.62a6.08,6.08,0,0,1,.74.16A7.15,7.15,0,0,1,18,21.32Z"/><path class="cls-1" d="M18.09,24.84v-.61a12.18,12.18,0,0,0,0-1.48.46.46,0,0,0-.24-.41.37.37,0,0,1-.12-.13H18s0-.07,0-.08a1.47,1.47,0,0,0-.29-.32,2.76,2.76,0,0,0-.65-.36,6.17,6.17,0,0,0-.77-.17.24.24,0,0,0-.3.1,9.32,9.32,0,0,0-.55.92.58.58,0,0,0-.06.48,1,1,0,0,0,.32.44,4.85,4.85,0,0,0,.74.47,8.33,8.33,0,0,1,1.7,1.12Z"/><path class="cls-1" d="M10.56,29.88V30a1.17,1.17,0,0,0,.6.6c0-.39.05-.74.07-1.14C10.91,29.55,10.67,29.59,10.56,29.88Z"/><path class="cls-1" d="M16,28.51a3.25,3.25,0,0,0,.43.18.86.86,0,0,0,.92-.24h0l-.44.1c-.18,0-.2,0-.18-.17s0-.21,0-.31-.08-.18-.15-.16-.12,0-.12-.1v-.23l-.29.28a.74.74,0,0,0-.25.52A.16.16,0,0,0,16,28.51Z"/><path class="cls-1" d="M16.88,27.27a.11.11,0,0,0,0-.08v-.25h0c0,.08-.1.15-.13.22s0,.07,0,.08A.31.31,0,0,0,16.88,27.27Z"/><path class="cls-1" d="M19.69,11.1A1.62,1.62,0,0,1,20,11L20,11l.17-.29h-.07a.26.26,0,0,1-.27,0,.35.35,0,0,0-.3,0,.29.29,0,0,0,0,.08s.06.18.09.27S19.64,11.14,19.69,11.1Z"/><path class="cls-1" d="M19.71,13.22V13h0a1.91,1.91,0,0,0-.16.88c.09,0,.19,0,.23,0a3.73,3.73,0,0,0,.25-.39h-.23A.4.4,0,0,1,19.71,13.22Z"/><path class="cls-1" d="M13.19,27.07c0-.1.07-.11.14,0l.1.12c.05,0,.1-.08.16-.08a.49.49,0,0,1,.17.06h0a.76.76,0,0,1-.19-.12c-.08-.06-.23-.06-.23-.21h0l-.17-.05-.06.51h0A.85.85,0,0,1,13.19,27.07Z"/><path class="cls-1" d="M23.87,21.84a.44.44,0,0,0,.08-.11,1.55,1.55,0,0,1,.07-.35h-.33l-.06-.15h0a5,5,0,0,0-.11.85l.2-.16Z"/><path class="cls-1" d="M16.39,12.41c0,.15.07.24.17.26V12.1A.25.25,0,0,0,16.39,12.41Z"/><path class="cls-1" d="M20,11.75l.05-.59h-.13c-.36.1-.39.13-.45.51v.17A.63.63,0,0,1,20,11.75Z"/><path class="cls-1" d="M13.91,21.45a.16.16,0,0,0-.06.08.3.3,0,0,0,.15.38l.09.08.2.15h0l-.18-.69Z"/><path class="cls-1" d="M17.89,31.21a1,1,0,0,1-.32-.1,3.49,3.49,0,0,1-.44-.2.25.25,0,0,1-.14-.25l.26-.05v-.05l-.07-.13h.17c-.05-.11-.08-.2-.12-.31s0-.12.09-.11h.3L17.55,30h0l0-.2.36,0c0-.13-.13-.24-.08-.4l.28.19V28.36a.23.23,0,0,0-.07.07,1.82,1.82,0,0,1-.65.55,1,1,0,0,1-.79.16,4,4,0,0,1-.67-.21c-.22-.09-.42-.21-.65-.31l-.36-.11-1-.2c-.16,0-.16-.07-.08-.21h0s.07,0,.17,0a1.15,1.15,0,0,0-1.55.38l.13.09h0l-.14.05a.83.83,0,0,0-.34.05c-.11,0-.28,0-.31.22h0a.81.81,0,0,0-.27.47,5.92,5.92,0,0,0-.07,1.26.28.28,0,0,0,.15.23L12,31a6.76,6.76,0,0,0,1.76.48c.74.13,1.43.21,2.15.31.29.05.58.09.86.16a5,5,0,0,1,1.17.48l.21.1V31.48A.31.31,0,0,0,17.89,31.21Z"/><path class="cls-1" d="M20,32.28a.39.39,0,0,0,.08.2c.07.1.17.18.24.28l.21.27s.13,0,.2.06a.28.28,0,0,0,0-.13,1.41,1.41,0,0,0,0-.29l.24.19a1.59,1.59,0,0,1,.09-.39h.05l.2.32c.07-.17.2-.32.14-.52a4.62,4.62,0,0,0-.19-.6c0-.05-.08-.11-.13-.14l-.28-.17-.34-.28-.16.17A1.16,1.16,0,0,0,20,32.28Z"/><path class="cls-1" d="M21,35.61l.15,0a2.27,2.27,0,0,1,.69.36l.29.18a2.62,2.62,0,0,0-.24-.34,2.5,2.5,0,0,0-.22-.24.32.32,0,0,0-.13-.1A.69.69,0,0,0,21,35.61Z"/><path class="cls-1" d="M26.08,26l-.32-.15a3.07,3.07,0,0,1-.05.68l.45-.25a.4.4,0,0,0-.05-.23C26.05,25.94,26.09,26,26.08,26Z"/><path class="cls-1" d="M22.76,36.2h.11l.37-.25a.16.16,0,0,0,0-.21h0a2.52,2.52,0,0,1-.14-.33c.05-.14,0-.21-.11-.23a1.51,1.51,0,0,1-.45-.2c-.19-.11-.21-.11-.33.08l-.06.09a.35.35,0,0,0,.06.47Z"/><path class="cls-1" d="M18,13h-.38c.15-.12.07-.19,0-.28a.53.53,0,0,1-.12-.14h.22l-.1-.27h0l.53.35h0c0-.17-.08-.34-.11-.51a.28.28,0,0,0-.18-.2c-.2-.06-.4-.14-.6-.22a.42.42,0,0,1-.16-.09c-.09-.07-.11-.07-.15,0a2.55,2.55,0,0,0-.17,1.09,1.38,1.38,0,0,0,.14.5c.2.33.43.63.64.94l.08.09c0-.09,0-.17.11-.17a.72.72,0,0,1,0-.41l.22.12h.1a1.22,1.22,0,0,1,.07-.17l.08-.11h0a3.18,3.18,0,0,0,.06.43h.05a2.12,2.12,0,0,0-.07-.66.27.27,0,0,0-.24-.31Z"/><path class="cls-1" d="M25.57,32.61c-.29,0-.31,0-.46.19C25.35,32.82,25.54,32.74,25.57,32.61Z"/><path class="cls-1" d="M22.78,32.73v-.31a1,1,0,0,0-.44.35l.32,0C22.75,32.82,22.78,32.79,22.78,32.73Z"/><path class="cls-1" d="M19.71,31.68a.3.3,0,0,0,.06.4C19.74,31.93,19.8,31.81,19.71,31.68Z"/><path class="cls-1" d="M20,33.91c-.07-.21-.14-.43-.2-.65.21,0,.34.15.53.22a.81.81,0,0,0-.12-.29c-.27-.29-.56-.55-.84-.83l-.08,0h0c.05,1.2.23,2.4.28,3.6a2.58,2.58,0,0,1,.79-.52.27.27,0,0,0,.14-.19,2.45,2.45,0,0,1,.09-.42A3.71,3.71,0,0,1,19.55,34C19.68,33.87,19.85,33.93,20,33.91Z"/><path class="cls-1" d="M23,32.79l.05.14a.16.16,0,0,0,.06-.08.33.33,0,0,1,.25-.23v-.54l-.17.05a.32.32,0,0,0-.23.4A1.17,1.17,0,0,1,23,32.79Z"/></svg>