<svg id="Layer_1" data-name="Layer 1" xmlns="http://www.w3.org/2000/svg" viewBox="0 0 108.99 151.71"><defs><style>.cls-1{fill:#040404;}</style></defs><path class="cls-1" d="M46.89,54.57a.06.06,0,0,0,0,0Z"/><path class="cls-1" d="M100.47,48.07A77.89,77.89,0,0,0,89.75,25.41,53.15,53.15,0,0,0,73.88,10.15a36.48,36.48,0,0,0-38.78,0A53.15,53.15,0,0,0,19.23,25.41,77.87,77.87,0,0,0,8.52,48.07a99.87,99.87,0,0,0,0,55.55,77.93,77.93,0,0,0,10.71,22.67A53.11,53.11,0,0,0,35.1,141.54a36.42,36.42,0,0,0,38.78,0,53.11,53.11,0,0,0,15.87-15.25,78,78,0,0,0,10.72-22.67,97.53,97.53,0,0,0,3.93-27.77A97.6,97.6,0,0,0,100.47,48.07ZM87.4,72.43c.24.13.29.28,0,.48a4.17,4.17,0,0,1-.62.49l.82.29a2.51,2.51,0,0,1-.46.32,14.15,14.15,0,0,1-3.51,1.37,18.72,18.72,0,0,0-7.26,3.16A21.08,21.08,0,0,1,68.48,82c-1.1.26-2.16.46-3.31.7A17.25,17.25,0,0,0,61.29,84a19.42,19.42,0,0,0-1.86,1,2.68,2.68,0,0,0-.65.56c-.39.41-.33.78.21,1.13V86a2.58,2.58,0,0,1,.44.22c.13.13.21.28.32.41l.82-1.08.39.86c.16-.32.29-.71.7-.84L62,86l.24-.65.22.41.21-.7.83.65a2.15,2.15,0,0,1,.34-1.21l.59,1,.45-.55,1.26,1.35.87-.74.32,1,1-.65.1.58.52-.3v.5l1.56-.57c0,.17.08.32.13.48s.13.28.33.17a1.9,1.9,0,0,1,.63-.06v.45l.67-.6.13,1.28c.67-.11,1.21-.78,2-.52l-.26.58.61-.11h.26c.48,0,.56,0,.39.5v.2h.93l-.37.39h.87c.56-.11.72,0,.65.6a3.62,3.62,0,0,1-.17.57c0,.19,0,.21,0,.34l.26-.17.56-.74v.59c0,.22.13.3.35.19L79,90a3.53,3.53,0,0,1,0,.46,1.06,1.06,0,0,1-.26.43,1,1,0,0,0-.26,1,3.68,3.68,0,0,1,0,.47,4.27,4.27,0,0,1,.54.13.47.47,0,0,1,.26.24.26.26,0,0,1-.19.24l-.85.52L77,94.34c-.23.19-.52.32-.78.5s-.36.3-.56.45h.78l-.24.52h1.33L77.22,97h1c.67,0,.73.11.56.74l-.15.54.58-.39h.29a1,1,0,0,1,0,.24c0,.17-.2.33-.31.52h1a3.22,3.22,0,0,1-1.43,2.17l1.34.15-.87.56a9.69,9.69,0,0,1-3.88,1.26l-1.12.3.36.31a2.25,2.25,0,0,1-.47.34c-.83.31-1.65.63-2.52.87a7.31,7.31,0,0,0-2.16,1.13,22.21,22.21,0,0,1-2,1.28,3.58,3.58,0,0,1-2.32.34,7.43,7.43,0,0,1-1.45-.54c-.69-.28-1.37-.63-2.17-.89a4.65,4.65,0,0,0-1.1-.21,1.41,1.41,0,0,0-1.28.49,6.08,6.08,0,0,0-1.5,2.76,29,29,0,0,0-.6,3.33,56.23,56.23,0,0,0-.42,8.3c0,1.24.16,2.5.22,3.73v4.29c0,.24.11.31.3.29h2.39a7.57,7.57,0,0,1,3.38-.13,1,1,0,0,0,.24,0,1.93,1.93,0,0,1,1.8.91,3,3,0,0,0,1,.67,4.41,4.41,0,0,0,2.38.28c1.11,0,2.17.24,3.32.19a24.34,24.34,0,0,1,8.82,1.52c-2,2.82-11.51,11.21-26.89,10.84a33.42,33.42,0,0,1-24.65-11,2.29,2.29,0,0,0,.59-.43c.24-.24.41-.52.65-.74a2.84,2.84,0,0,1,.61-.35h.1c.35-.32.76-.21,1.15-.23s1.11,0,1.65,0a3.93,3.93,0,0,0,2.36-1.26,1.65,1.65,0,0,1,.57-.37,1.91,1.91,0,0,1,.62-.13,15.77,15.77,0,0,0,2.17-.35,8.75,8.75,0,0,1,2.17,0,3,3,0,0,0,1.45-.13,8.33,8.33,0,0,1,1.41-.15l.48-.11a7.88,7.88,0,0,1,1.19-.13,1.41,1.41,0,0,0,.82-.24,2.48,2.48,0,0,1,1.32-.36H50.3a.49.49,0,0,1,.24,0l1.06.52.41-.09h.31c.65,0,.71,0,.71-.76v-5.37a46.73,46.73,0,0,1,.39-6,41.17,41.17,0,0,0,.31-5.87c0-1.63,0-3.25-.16-4.88a4.36,4.36,0,0,0-.47-2,1.5,1.5,0,0,0-1.09-.91.63.63,0,0,1-.32-.15.42.42,0,0,1,0-.31.34.34,0,0,1,.24-.13h1.43a8.24,8.24,0,0,0-.2-2.16,1.42,1.42,0,0,0-.13-.72,1.57,1.57,0,0,0-.82-1.19,12.8,12.8,0,0,0-4.73-1.84c-1.79-.35-3.59-.65-5.39-1A31.16,31.16,0,0,1,36.47,93a28.07,28.07,0,0,1-3.22-1.56A16.47,16.47,0,0,0,30,90c-1-.26-2-.63-3-.93a1.82,1.82,0,0,0-1.13,0,4.23,4.23,0,0,1-.71.13.26.26,0,0,1-.24-.2h-1a.91.91,0,0,1-.43-.1,1.13,1.13,0,0,1,.21-.35,5.9,5.9,0,0,1,.59-.43A6.65,6.65,0,0,1,22,86.75l.24-.23c-.17-.31-1-.44-.26-1l-.63-.57c-.22-.24-.17-.32.13-.39l.54-.13a4.6,4.6,0,0,1-.32-.45,1.88,1.88,0,0,1-.28-.52c0-.24,0-.37.28-.37h.73l-.17-.46c-.13-.32,0-.34.22-.41H23l-.32-.74h.93a1.7,1.7,0,0,0-.18-.49,2.28,2.28,0,0,1,0-.37h.39l.61.17q0-.31,0-.63c0-.3.15-.34.39-.15l.59.48.17-.44.48.18v-.44h.37a2.88,2.88,0,0,1,.1-2.16l.76,1a2.81,2.81,0,0,1,0-.41s0-.26.18-.28.19,0,.28.15l.24.26.19-.67c.13-.35.22-.37.52-.15l.54.41a4.72,4.72,0,0,1,.52-.72l.57.35.26-.54.39.34.32-.58a1.12,1.12,0,0,1,.33-.28c0,.1.19.19.21.3s.2.63.31,1a1.71,1.71,0,0,0,0-.32,3.52,3.52,0,0,1,.26-1c.11-.32.41-.41.65,0a6.29,6.29,0,0,1,.32.7,2,2,0,0,0,.18.52l.45-.5.24.43.26-.86v-.22c0-.07,0-.13.13-.13h.15s0,.11,0,.17.26.31.48,0a8.21,8.21,0,0,1,.58-.6.79.79,0,0,1,.28-.13v.54c.52-.54.74-.7,1.07-.74v.74l.32-.41.39-.31.22,1h.35a4.76,4.76,0,0,1-.2-.74c0-.26,0-.5.37-.47v-.5H39c0-.2,0-.41,0-.61a1,1,0,0,1,0-.35.74.74,0,0,1,.26-.54c.13-.06.3.22.45.33L40,74l.24-.82,1,.5a.8.8,0,0,1,.17-.59c.17-.19.17-.32.43-.13l.76.61a2.17,2.17,0,0,1,.2-.57,4,4,0,0,1,.19-.43,1.73,1.73,0,0,1,.44.37,2.45,2.45,0,0,1,.23.56l.78-1.45h.16c.23.56.45,1.15.69,1.71l.22-.32.19.11.61-1.07a4.63,4.63,0,0,1,.41,1.93l.63-.71.22.52.45-.44h.13v.52c0,.2,0,.29.24.29H49c0,.32-.35.43-.57.56a.5.5,0,0,0-.29.64l0,.07.42-.62h.13v1a.34.34,0,0,0,.41.31c.19,0,.19-.18.19-.28a2.22,2.22,0,0,1,.46-.74c.19-.22.26,0,.32,0a3.15,3.15,0,0,1,.26.56l.26-.34.31-.42.41-.26a2.23,2.23,0,0,1,.26.48,4.16,4.16,0,0,1,.13.72c.76-.61.61-1.37.43-2.17a.24.24,0,0,0-.11-.2c-.8-.8-1.62-1.6-2.47-2.36a9.34,9.34,0,0,0-2-1.08,11.78,11.78,0,0,1-2.71-1.76c-1.28-1.19-2.62-2.34-3.94-3.46-.57-.48-1.15-.91-1.76-1.35a10.3,10.3,0,0,0-4.33-1.84,3.45,3.45,0,0,1-1.13-.39c-.28-.15-.26-.28,0-.48l.43-.3-.65-1.28.46-.17L33,58.58v-.11h1.41c-.18-.28-.31-.47-.44-.71s-.15-.46.26-.52l.57-.13-.13,0c-.13-.15,0-.26,0-.31l.54-.13v-.1l-2.71-1,.78-.65-.65-.52c-.26-.22-.22-.37,0-.46a7.46,7.46,0,0,1,1.08-.17l-.5-.61h1.46l-.42-.65c-.13-.22,0-.3.18-.35h.37l-.76-1.75.93.21h.26a1.19,1.19,0,0,1,1.1.87h.11l.18-.95a2.18,2.18,0,0,1-.85-1.39l.67.13H37c.17,0,.26,0,.32-.19s.24-.42.52-.16l.74.68V48.24l.91.76a1.1,1.1,0,0,1,.22-.52,2.77,2.77,0,0,1,.28-.54c.19.45.37.84.54,1.28l.76-1.3h.13l.45.91.74-1.17a1.83,1.83,0,0,1,0,1.45c.46,0,.46,0,.48.41.63-.26.63-.26.63.46A1.51,1.51,0,0,1,45,49.35l-.3,1.17c.24,0,.26.15.21.34-.13.59-.28,1.18-.39,1.76q0,.36,0,.72a4.13,4.13,0,0,1,1.28.13L47,53.7l-.85.48H47l-.1.39c0-.09.16-.17.18-.26a1.93,1.93,0,0,0,0-.48,3.09,3.09,0,0,0,0-.43h.11l.5.54.24-.39v.83l.63-.2a1.83,1.83,0,0,1,.21-.39c.15-.24.26-.24.37,0s.15.46.24.65l.67-.8c.5.28.26.76.39,1.13.56-.35.56-.35.74,0a2.6,2.6,0,0,1,.32-.26,2.42,2.42,0,0,1,.61-.24s.22.19.22.28a6.85,6.85,0,0,1-.13,1l.41-.13c.22,0,.3,0,.26.23l-.13.46h.13a4,4,0,0,1,.19-.65c0-.72.2-1.43.22-2.17,0-1.73.2-3.49.2-5.24s.15-1.26-1.26-1.87A10,10,0,0,0,50,45.3c-.58,0-.58-.18-.5-.72-.3-.11-.6-.2-.89-.33s-.28-.23,0-.39.42-.24.63-.34.33-.13.44.11.1,0,.17,0h1c-.24-.78-.93-1-1.5-1.37v-.11H51c-.85-1.19-1.65-2.4-2.54-3.57a3.71,3.71,0,0,0-2.66-1.39,1,1,0,0,0-.85.24,5.19,5.19,0,0,1-1,.5v-.76a1.9,1.9,0,0,0-.15-.46v-.13c-.17-.52-.56-.65-1.06-.73s-.89-.24-1.32-.39a1.87,1.87,0,0,1-.39-.22c-.28-.2-.28-.39,0-.54l.84-.33-.71-.52v-.21l1.12-.16-.43-1,.61.13c.47.13.5,0,.39-.37V32.1a3.12,3.12,0,0,1,1.36.41L44,31.32l1,.3-.15-1.69H45l.93.54v-.78l.76.43-.3-1.49.56.17V27.42a2.72,2.72,0,0,1,1.45,1v-.67l.85.76.45-1c-.5-.45-1.23-.69-1.56-1.47h1l-1-1.28H49.2l-.52-.91h1.17l-.52-1,1.19.35-.39-.91,1.36.84v-.65h.35V21.26l1.13.41c0-.3-.07-.61-.13-.91h.69c0-.39-.13-.84.26-1.21l.46.54.36-.58c.2-.5.44-.53.76,0a3,3,0,0,1,.28.41l.11.19L56.5,19h.13l.8,1.54c.26-.41.41-1,1-1.09a3.17,3.17,0,0,0,.28,1,3.72,3.72,0,0,1,.48-.41s.21-.13.26,0a.51.51,0,0,1,.15.3,3.84,3.84,0,0,1,0,.48c.39-.17.74-.37,1.13-.5s.43-.11.41.33,0,.58,0,.91l.45-.11.11.89.56-.29v1.09l.68-.35a3.55,3.55,0,0,0-.31,2.88l.31-.43.36.72.55-.63a2.68,2.68,0,0,0,.1.89,2.75,2.75,0,0,1,0,.95l.94-.67.13.8.76-.5h.1V28.2h.55c.34,0,.41,0,.3.41l-.26.6h1a.8.8,0,0,1-.11.37,2.67,2.67,0,0,1-.43.46,4.36,4.36,0,0,1,.46.41s.13.17.1.24a.3.3,0,0,1-.23.13h-.78l.34.69h-.26a1.19,1.19,0,0,0-.86.24.6.6,0,0,0-.37.59,1.27,1.27,0,0,1,0,.39h-.65a2,2,0,0,0-.74,2.36l.93-.59a5,5,0,0,1-.21,1l1.12-.72.13,1.06,1.06-.17v1.28h.44v.56a.67.67,0,0,1,0,.2,1.91,1.91,0,0,1-.18.5l.59-.16-.22.92.76-.29a2.66,2.66,0,0,1-1.65,2.17h.24l.28.35a1,1,0,0,1-.19.26.81.81,0,0,1-.3.13l-1.15.17c-.59.13-1.17.24-1.74.39-.21,0-.39.24-.58.35v.11h1.12l-.82.67.91.19a.9.9,0,0,1-.43.76c-.5.3-1,.61-1.52.87s-1.32.61-2,.91a2.19,2.19,0,0,0-.41.26l1,.67v.13h-.67a5.1,5.1,0,0,0-1.9.24,1.23,1.23,0,0,0-.83.69c-.21.47-.4,1-.56,1.43-.41,1.41-.8,2.84-1.19,4.34-.11.37-.22.71-.29,1.06a35.32,35.32,0,0,0-.28,6.74c0,1.71.13,3.4.22,5.11a3,3,0,0,0,.11,1,1.11,1.11,0,0,0,.17.3c.54-.26,1.09-.5,1.65-.71a12.85,12.85,0,0,1,4-.63c1.34,0,2.68-.13,4-.24a3,3,0,0,0,1.6-.54,1.73,1.73,0,0,0,.46-2.17,3.21,3.21,0,0,0-.78-.78c-.44-.28-.91-.5-1.37-.78l-2-1.3c-.1,0-.15-.24-.23-.35a1.29,1.29,0,0,1,.39-.19,4.45,4.45,0,0,1,.73,0h.24a4.81,4.81,0,0,0-.26-1.15,1.44,1.44,0,0,0-.52-.84c-.15-.11-.11-.26,0-.31h.37l.13-.61.56.24V57.3l.87.22v-.87l.59.13v-.93a.35.35,0,0,1,.15-.28.38.38,0,0,1,.3.15,4.23,4.23,0,0,1,.33.41l.13-.54.65.43a2,2,0,0,0,.13-.34c0-.24.23-.31.43-.18a4,4,0,0,1,.45.37,2.11,2.11,0,0,1,.26.35,1.31,1.31,0,0,0,0-.28,4.29,4.29,0,0,1,.22-.72.87.87,0,0,1,.41-.35l.33.31.19.28a1.79,1.79,0,0,1,.35-.67c.26-.24.35.19.54.24s.18-.52.28-.76.18-.18.26-.26a1.29,1.29,0,0,1,.22.3v.56c.08-.14.17-.27.26-.41s.26-.28.41,0a.3.3,0,0,0,.26,0,.33.33,0,0,0,.24-.15l.28.69.59-.52c.24.44.43.81.67,1.2a7,7,0,0,1,.5-.78c.17-.24.15-.22.21-.2a.47.47,0,0,1,.26.22.58.58,0,0,1,0,.32,1.06,1.06,0,0,0,.18.7,2.14,2.14,0,0,1,1.54-.29,4.13,4.13,0,0,1-.13,1.28h.56c.26,0,.35.11.24.37s-.21.41-.33.61h.13c.42,0,.46.15.24.5l-.5.8.46.11c-.2.58-.74.71-1.13,1l.37.76c-1.32,0-2.17.84-3.14,1.36.26.13.56.11.65.48h-.13a13.39,13.39,0,0,0-2.49.72,10,10,0,0,0-2.5,1.62,10.25,10.25,0,0,1-2.06,1.52,9.61,9.61,0,0,1-2.16.78,18.59,18.59,0,0,1-4.34.3,12.05,12.05,0,0,0-3.1.41,4.42,4.42,0,0,0-1.95,1,1.83,1.83,0,0,0-.56,1.11h1.41c0,.52-.11.52-.54.56l-.87.18a.35.35,0,0,0-.3.41v6.3a1.41,1.41,0,0,0,0,.29L56.35,78v1.52h.45c.18,0,.24.17,0,.32s-.26.33-.43.41A1.11,1.11,0,0,0,56,81a1,1,0,0,0,0,.24l.19,3.84a9.72,9.72,0,0,1,3.69-2.5A21.26,21.26,0,0,1,65,81.38c2-.35,4-.76,6-1.19a6.49,6.49,0,0,0,1.77-.65,3.47,3.47,0,0,0,1.52-4.19,1.21,1.21,0,0,0-.24-.19l-.91-.37-.21-.17,1.08.13c-.39-.5-.39-1.26-1.24-1.39l.35-.28L73,73l-1.34-.78a14.5,14.5,0,0,1-2.93-2,2.7,2.7,0,0,1-.3-.52l.54-.26h1.21a3,3,0,0,1-.19-2.17l1,.39A2.62,2.62,0,0,1,71,67a4.52,4.52,0,0,1,.13-.82c0-.26.24-.31.43-.11a7.55,7.55,0,0,1,.61.65,1.24,1.24,0,0,1,.19.26,3.22,3.22,0,0,1,.28-1c.11-.3.18-.28.37-.11l.5.44a5.66,5.66,0,0,1,.28-.72c.18-.37.33-.37.59,0a3.43,3.43,0,0,0,.45.54,2.28,2.28,0,0,1,.15-.36,3.42,3.42,0,0,1,.46-.76c.19-.26.32-.24.5,0a8.85,8.85,0,0,1,.5.84l.13-.15s.17-.17.23-.15.29,0,.29.26,0,.19.15.26l.82-.85a.24.24,0,0,1,.37,0l.41.74.46-.61.47.91c.22-.23.35-.6.76-.71l.31,1,.36-.59.31.91c.76-.87.86-1,1.21-1.06v1c.39,0,.41,0,.39.28v.39l.59-.37c.21-.15.34,0,.41.17s0,.48.15.74l.76-.67.11.87L86.19,68a3.33,3.33,0,0,1-.58,1.54,2.81,2.81,0,0,1,.58,0l.39.19-.28.3.43.18-.37.39c.52.15.52.15.52.5s.74,0,1,.39l-.78.52Z"/><path class="cls-1" d="M54.48,0C24.38,0,0,33.94,0,75.85s24.38,75.86,54.48,75.86S109,117.72,109,75.85,84.52,0,54.48,0ZM90.24,126.63a53.62,53.62,0,0,1-16,15.43,37.06,37.06,0,0,1-39.4,0,53.85,53.85,0,0,1-16-15.43,78.47,78.47,0,0,1-10.8-22.84,100.58,100.58,0,0,1,0-55.89,78.6,78.6,0,0,1,10.8-22.84A53.69,53.69,0,0,1,34.79,9.64a37.06,37.06,0,0,1,39.4,0,53.46,53.46,0,0,1,16,15.42A78.6,78.6,0,0,1,101,47.9a100.58,100.58,0,0,1,0,55.89A78.47,78.47,0,0,1,90.24,126.63Z"/><path class="cls-1" d="M45.51,62.22c.22-.43.15-.56-.3-.69a16.27,16.27,0,0,0-1.69-.33H43.3a2.32,2.32,0,0,0-.67,2,3.66,3.66,0,0,0,1,2.45,2.79,2.79,0,0,1,.24-.74,5.7,5.7,0,0,1,1-1.82A5.35,5.35,0,0,0,45.51,62.22Z"/><path class="cls-1" d="M52.62,62.46v-4l-.58.85h-.2L48.2,61.14a18.26,18.26,0,0,1,2.17.47A20.36,20.36,0,0,1,52.62,62.46Z"/><path class="cls-1" d="M53,72.78V71a34.91,34.91,0,0,0,0-4.34,1.37,1.37,0,0,0-.71-1.19,1.37,1.37,0,0,1-.35-.37h.76c0-.11,0-.21-.11-.26a5.11,5.11,0,0,0-.87-.93,8,8,0,0,0-1.88-1c-.72-.26-1.52-.33-2.28-.52a.73.73,0,0,0-.87.3c-.58.87-1.11,1.77-1.6,2.69a1.71,1.71,0,0,0-.17,1.43A2.77,2.77,0,0,0,45.86,68,16.33,16.33,0,0,0,48,69.42a23.27,23.27,0,0,1,5,3.27Z"/><path class="cls-1" d="M30.93,87.53V88a3.44,3.44,0,0,0,1.77,1.77c0-1.14.13-2.16.2-3.33C32,86.56,31.27,86.69,30.93,87.53Z"/><path class="cls-1" d="M47,83.53a11.51,11.51,0,0,0,1.26.52,2.57,2.57,0,0,0,2.71-.7h0l-1.3.28c-.52.11-.59,0-.54-.47a7.24,7.24,0,0,0,0-.94c0-.3-.22-.52-.44-.45s-.34,0-.34-.3v-.68l-.85.83a2.14,2.14,0,0,0-.73,1.51A.44.44,0,0,0,47,83.53Z"/><path class="cls-1" d="M49.46,79.88a.45.45,0,0,0,0-.23v-.72h0a7.45,7.45,0,0,0-.39.65c-.11.22,0,.2,0,.24A.65.65,0,0,0,49.46,79.88Z"/><path class="cls-1" d="M57.69,32.51c.26-.13.54-.22.83-.33l.19-.1.5-.85H59a.77.77,0,0,1-.8,0,1.11,1.11,0,0,0-.89.11.78.78,0,0,0-.11.24c0,.06.18.54.26.8S57.54,32.64,57.69,32.51Z"/><path class="cls-1" d="M57.76,38.73V38h-.11a5.74,5.74,0,0,0-.46,2.58c.26,0,.57,0,.67-.13a8.21,8.21,0,0,0,.72-1.12h-.67A1.27,1.27,0,0,1,57.76,38.73Z"/><path class="cls-1" d="M38.64,79.3c.11-.28.22-.3.41,0l.29.37c.15,0,.3-.24.47-.24a1.74,1.74,0,0,1,.5.17h0a3.77,3.77,0,0,1-.54-.34c-.24-.18-.67-.18-.67-.63h0l-.5-.13L38.4,80h.11A3.78,3.78,0,0,1,38.64,79.3Z"/><path class="cls-1" d="M69.94,64a.89.89,0,0,0,.21-.33,5,5,0,0,1,.22-1h-1l-.17-.43h0a13,13,0,0,0-.3,2.49l.56-.47Z"/><path class="cls-1" d="M48,36.37a.69.69,0,0,0,.52.75V35.46A.77.77,0,0,0,48,36.37Z"/><path class="cls-1" d="M58.52,34.44l.13-1.74h-.37c-1.07.29-1.15.37-1.33,1.48a4.17,4.17,0,0,0,0,.5A1.76,1.76,0,0,1,58.52,34.44Z"/><path class="cls-1" d="M40.77,62.85a.37.37,0,0,0-.2.24.89.89,0,0,0,.43,1.1l.29.24.58.44h0c-.17-.68-.35-1.33-.54-2Z"/><path class="cls-1" d="M52.43,91.44a2.76,2.76,0,0,1-1-.31,13.07,13.07,0,0,1-1.28-.56.77.77,0,0,1-.41-.74l.76-.15v-.15l-.2-.39h.48c-.13-.31-.24-.59-.35-.89s0-.35.26-.33h.89l-.19-.17h0l-.11-.61,1.06.13c0-.39-.37-.69-.24-1.17l.83.57V83.09a1,1,0,0,0-.22.2,5.38,5.38,0,0,1-1.89,1.62,3,3,0,0,1-2.31.46,10,10,0,0,1-1.95-.61c-.65-.26-1.26-.63-1.91-.91a8.06,8.06,0,0,0-1.06-.32c-.94-.2-1.89-.37-2.82-.59-.48-.13-.48-.22-.24-.63h0c.13.17.22.17.5,0a3.36,3.36,0,0,0-4.53,1.13l.37.26h0a1.43,1.43,0,0,1-.39.15,2.65,2.65,0,0,0-1,.13c-.32.13-.84.15-.93.67h0A2.3,2.3,0,0,0,33.81,86a17.45,17.45,0,0,0-.2,3.68.77.77,0,0,0,.44.67,11.53,11.53,0,0,0,1,.55,21.58,21.58,0,0,0,5.18,1.4c2.16.37,4.18.61,6.28.91.85.13,1.69.26,2.52.46a15.22,15.22,0,0,1,3.42,1.41l.63.28V92.22A.88.88,0,0,0,52.43,91.44Z"/><path class="cls-1" d="M58.65,94.58a1.13,1.13,0,0,0,.23.58c.22.28.5.52.72.8a6.86,6.86,0,0,0,.61.81c.13.13.39.13.58.17a1.28,1.28,0,0,0,0-.39,5.61,5.61,0,0,0,0-.82l.72.54a6.27,6.27,0,0,1,.23-1.13h.16l.6.93c.2-.52.59-.95.41-1.54s-.34-1.17-.56-1.75c0-.15-.24-.3-.39-.41s-.56-.31-.82-.5-.63-.52-1-.82l-.45.49A3.49,3.49,0,0,0,58.65,94.58Z"/><path class="cls-1" d="M61.48,104.33l.46.13a6.36,6.36,0,0,1,2,1.06l.85.54a10,10,0,0,0-.69-1c-.2-.24-.44-.46-.65-.7a1,1,0,0,0-.37-.28A2.07,2.07,0,0,0,61.48,104.33Z"/><path class="cls-1" d="M76.39,76.07l-.93-.43a8.73,8.73,0,0,1-.15,2l1.32-.74a1.18,1.18,0,0,0-.15-.67C76.33,76,76.44,76.09,76.39,76.07Z"/><path class="cls-1" d="M66.69,106a.32.32,0,0,0,.3,0,12.55,12.55,0,0,0,1.08-.71.45.45,0,0,0,.12-.63v0a6.76,6.76,0,0,1-.41-1c.13-.43,0-.62-.33-.67a4.17,4.17,0,0,1-1.32-.61c-.54-.32-.63-.3-1,.24a1.74,1.74,0,0,0-.15.26,1,1,0,0,0,.15,1.39Z"/><path class="cls-1" d="M52.82,38.1H51.71c.43-.37.2-.59,0-.82a2.51,2.51,0,0,1-.35-.44H52l-.3-.78h0l1.56,1h0c-.11-.5-.24-1-.32-1.49a.77.77,0,0,0-.52-.57c-.59-.19-1.2-.41-1.78-.65a1.29,1.29,0,0,1-.48-.28c-.26-.19-.3-.19-.43.11a7.2,7.2,0,0,0-.48,3.18,4,4,0,0,0,.41,1.48c.57,1,1.24,1.84,1.87,2.75a2.65,2.65,0,0,0,.21.26c0-.28,0-.5.35-.5A2.17,2.17,0,0,1,52,40.16l.65.37h.3a2.75,2.75,0,0,1,.2-.5l.24-.33h.11A7.63,7.63,0,0,0,53.64,41h.15A6.6,6.6,0,0,0,53.6,39a.82.82,0,0,0-.71-.92Z"/><path class="cls-1" d="M74.9,95.53c-.85,0-.89,0-1.32.56C74.27,96.16,74.81,95.92,74.9,95.53Z"/><path class="cls-1" d="M66.75,95.88V95a2.57,2.57,0,0,0-1.3,1l.93.11C66.64,96.14,66.75,96.07,66.75,95.88Z"/><path class="cls-1" d="M57.73,92.82A.85.85,0,0,0,57.91,94C57.82,93.54,58,93.19,57.73,92.82Z"/><path class="cls-1" d="M58.67,99.35c-.22-.63-.41-1.26-.61-1.91.63,0,1,.43,1.56.65a2.88,2.88,0,0,0-.35-.85c-.8-.84-1.64-1.62-2.47-2.45l-.24-.13h0c.16,3.52.7,7,.83,10.56a7.24,7.24,0,0,1,2.32-1.54.76.76,0,0,0,.41-.56,7.06,7.06,0,0,1,.26-1.22,11.54,11.54,0,0,1-3.1-2.42C57.65,99.24,58.17,99.41,58.67,99.35Z"/><path class="cls-1" d="M67.44,96.05l.16.44a.81.81,0,0,0,.17-.24c.15-.33.3-.61.71-.7V94a4,4,0,0,0-.49.15,1,1,0,0,0-.68,1.17A3.58,3.58,0,0,1,67.44,96.05Z"/></svg>