<svg id="Layer_1" data-name="Layer 1" xmlns="http://www.w3.org/2000/svg" viewBox="0 0 13.04 12.17">
  <defs>
    <style>
      .cls-1 {
        fill: #e94424;
      }
    </style>
  </defs>
  <title>Wishlist_2</title>
  <path class="cls-1" d="M6.52,12.17l-.26-.26L5,10.7C2.22,8,0,5.79,0,3.55A3.46,3.46,0,0,1,3.59,0,3.73,3.73,0,0,1,6.52,1.38,3.72,3.72,0,0,1,9.45,0,3.45,3.45,0,0,1,13,3.55C13,5.79,10.82,8,8,10.71l-1.22,1.2ZM3.59.75A2.73,2.73,0,0,0,.75,3.55c0,1.92,2.12,4,4.81,6.62l1,.94,1-.94c2.69-2.62,4.81-4.7,4.81-6.62A2.72,2.72,0,0,0,9.45.76,3,3,0,0,0,6.84,2.23l-.32.55L6.2,2.23A3,3,0,0,0,3.59.75Z"/>
</svg>
